<svg xmlns="http://www.w3.org/2000/svg" viewBox="0 0 200 188"><g fill="#eb6303"><path d="M447 761c.056-.672.116-.741.697-.797.624-.06.637-.045.637.736 0 .783-.013.797-.697.797-.686 0-.696-.012-.637-.736zm-29.2 0c.056-.672.116-.741.697-.797.624-.06.637-.045.637.736 0 .783-.013.797-.697.797-.686 0-.696-.012-.637-.736zm-42.5 0c.056-.672.116-.741.697-.797.624-.06.637-.045.637.736 0 .783-.013.797-.697.797-.686 0-.696-.012-.637-.736zm124 4.81.052-5.54h1.18l.054 3.09c.03 1.7.12 3.09.2 3.09s.848-.706 1.7-1.57c1.49-1.5 1.6-1.57 2.44-1.57h.88l-3.02 3.04 1.56 2.41c.86 1.33 1.56 2.45 1.56 2.5 0 .049-.377.088-.84.088h-.84l-1.13-1.86c-.623-1.02-1.21-1.91-1.31-1.97-.094-.058-.395.089-.67.327-.454.396-.498.57-.498 1.97v1.53h-1.38l.052-5.54zm-5.14 1.52v-4.02h.588c.524 0 .588.065.588.595v.595l.667-.668c.595-.596 1.71-1.02 1.98-.75.053.053.097.391.097.751 0 .563-.067.654-.48.654a1.99 1.99 0 0 0-1.74.979c-.261.443-.326 1.08-.326 3.22v2.67h-1.37v-4.02zm-20.9 3.78c-.048-.135-.406-1.48-.794-2.99s-1-3.88-1.36-5.26c-.71-2.71-.699-2.78.429-2.65l.555.064.979 4.36c.538 2.4 1.03 4.36 1.08 4.36.057 0 .268-.638.469-1.42.2-.78.737-2.74 1.19-4.36l.827-2.95 1.6-.12.388 1.33c.214.734.763 2.72 1.22 4.42.458 1.7.881 3.04.939 2.98.058-.059.55-2.02 1.09-4.36l.985-4.26h.784c.95 0 1-.517-.511 5.3-1.65 6.36-1.43 5.82-2.38 5.75l-.797-.06-1.18-4.36c-.648-2.4-1.24-4.36-1.32-4.36-.076 0-.242.42-.369.932-.189.762-1.71 6.27-2.09 7.55-.121.412-1.6.496-1.74.099zm-14.4-3.78v-4.02h.686c.608 0 .686.058.686.511v.511l.692-.609c1.3-1.14 3.61-.772 4.3.687.227.479.297 1.37.297 3.78v3.16h-1.34l-.062-3.16c-.06-3.04-.08-3.17-.525-3.53-.88-.712-2.44-.322-2.97.739-.178.362-.3 1.49-.351 3.25l-.079 2.7h-1.33v-4.02zm-11.9 0v-4.02h1.37v8.04h-1.37zm-25.7 0v-4.02h.588c.502 0 .588.074.588.508v.508l.594-.5c1.23-1.04 2.89-1.02 3.73.03.263.329.46.442.512.296.174-.486 1.43-1.07 2.29-1.07 1.07 0 1.59.27 2.08 1.08.337.553.381 1 .381 3.91v3.29h-1.37v-3.14c0-2.88-.033-3.17-.392-3.53-.613-.614-1.49-.508-2.27.275l-.666.667v5.73h-1.37v-3.14c0-2.88-.033-3.17-.392-3.53-.57-.57-1.44-.5-2.2.18l-.64.572-.126 5.92h-1.34v-4.02zm-3.53 0v-4.02h1.37v8.04h-1.37zm-8.62 0v-4.02h.686c.608 0 .686.058.686.511v.511l.692-.609c1.3-1.14 3.61-.772 4.3.687.227.479.297 1.37.297 3.78v3.16h-1.34l-.062-3.16c-.06-3.04-.08-3.17-.525-3.53-.88-.712-2.47-.289-2.97.786-.15.324-.224 1.48-.207 3.2l.026 2.7h-1.58v-4.02zm-4.51-.644c0-.474-1.52-4.6-1.63-4.42-.072.117-.482 1.19-.911 2.39l-.78 2.18h1.66c.913 0 1.66-.07 1.66-.154zm-6.46 4.61c0-.031.926-2.52 2.06-5.53 1.13-3.01 2.06-5.5 2.06-5.53 0-.034.385-.061.855-.061h.855l1.92 5.35c1.06 2.94 1.96 5.46 2.01 5.6.068.193-.123.242-.757.196l-.847-.062-.983-3.04h-4.52l-1.11 3.14h-.769c-.423 0-.769-.025-.769-.057zm-17.4 0c0-.033-.65-1.84-1.45-4.02l-1.45-3.96h1.63l.968 3.14c.532 1.73 1.02 3.14 1.09 3.14s.545-1.26 1.06-2.8c1.2-3.58 1.14-3.48 1.96-3.48.373 0 .679.043.679.096 0 .052-.581 1.62-1.29 3.48-.71 1.86-1.38 3.63-1.49 3.93-.17.462-.307.539-.962.539-.42 0-.764-.027-.764-.06zm-5.48-3.96v-4.02h1.37v8.04h-1.37zm-29 0v-4.02h.686c.613 0 .686.055.686.527v.527l.553-.531c.55-.528 1.67-.983 1.88-.767.062.062.113.39.113.729 0 .563-.07.632-.816.801-1.41.319-1.62.822-1.7 4.02l-.064 2.73h-1.34v-4.02zm-22.1 0v-4.02h.686c.635 0 .686.045.686.604v.604l.506-.602c.468-.557 1.55-1.05 1.89-.859.08.044.147.368.147.718 0 .587-.064.652-.816.822-1.41.319-1.62.822-1.7 4.02l-.064 2.73h-1.34v-4.02zm-3.95-2.53c.701-.702.739-2.05.078-2.72-.4-.401-.668-.454-2.6-.513l-2.15-.066v1.85c0 1.02.066 1.92.147 2 .08.083 1.01.11 2.07.061 1.77-.082 1.97-.134 2.45-.614zm-6.19 1.01.052-5.54h3.04c2.7 0 3.11.044 3.71.399 1.96 1.16 1.97 4.21.016 5.53-.588.397-.892.442-2.98.442h-2.32v4.71h-1.57l.052-5.54zm194 5.41c-.757-.373-1.15-.904-1.33-1.79-.122-.61-.107-.627.564-.627.57 0 .71.084.811.488.2.797.935 1.14 2.2 1.04 1.14-.095 1.63-.444 1.63-1.16 0-.586-.529-.91-2.09-1.28-.83-.196-1.78-.538-2.11-.76-1.32-.886-1.01-2.94.547-3.7.981-.48 2.66-.475 3.49.01.653.382 1.45 1.68 1.24 2.02-.198.321-1.28.25-1.28-.084 0-.587-.817-1.09-1.78-1.09-1.2 0-1.86.493-1.68 1.24.108.431.32.572 1.25.832 2.38.663 2.99.92 3.37 1.4.823 1.05.292 2.83-1.03 3.46-.902.43-2.96.427-3.83 0zm-17.9-1.4c.534-.534.981-1.67.981-2.49 0-.818-.447-1.95-.981-2.49-.43-.431-.736-.555-1.37-.555-.446 0-.989.095-1.21.212-.956.512-1.45 2.99-.876 4.37.634 1.52 2.39 2 3.45.943zm-3.13 1.37c-.375-.2-.938-.724-1.25-1.16-.469-.662-.584-1.05-.661-2.26-.106-1.65.133-2.6.876-3.48 1.1-1.31 3.07-1.62 4.6-.72 2.62 1.54 2.46 6.3-.254 7.71-.777.403-2.49.362-3.31-.08zm-32.1-1.1c.691-.358 1.19-1.55 1.19-2.84 0-1.85-.836-2.95-2.24-2.95-1.52 0-2.34 1.08-2.33 3.05.018 2.45 1.55 3.69 3.37 2.74zm-2.85 1.09c-2.71-1.66-2.61-6.35.165-7.79.682-.353 2.18-.393 3-.08 1.47.563 2.24 1.96 2.24 4.02 0 2.05-.78 3.47-2.21 4.01-.893.34-2.51.255-3.2-.167zm-8.37-.03-.516-.407v-6.22l-.539-.062c-.423-.049-.552-.178-.601-.602-.056-.485-.002-.54.539-.54h.601v-2.38l.637.062c.629.06.637.074.695 1.19.058 1.1.07 1.13.637 1.13.511 0 .578.068.578.59s-.065.588-.588.588h-.588v5.7l.588.118c.446.09.588.225.588.563 0 .776-1.19.938-2.03.276zm-5.56-1.1c.647-.326 1.13-1.2 1.13-2.04 0-.591-.03-.615-.637-.51-.35.06-1.07.17-1.6.246-1.56.218-2.27 1.2-1.58 2.18.467.668 1.51.717 2.69.124zm-3.23 1.2c-1.48-.802-1.45-3.33.04-4.1.338-.175 1.37-.42 2.29-.542 1.87-.251 2.23-.555 1.85-1.57-.445-1.18-2.97-1.12-3.42.068-.176.47-.324.565-.876.565-.626 0-.656-.03-.531-.539.342-1.39 1.38-2.05 3.25-2.05 1.15 0 2 .317 2.58.96.28.311.346.86.39 3.31.055 2.9.06 2.93.508 3 .363.052.44.168.392.59-.048.41-.18.537-.612.587-.652.076-1.51-.428-1.51-.887 0-.275-.067-.26-.441.09-.906.85-2.84 1.11-3.92.525zm-43.2-5c0-2.07-3.04-2.66-4.01-.781-.587 1.14-.515 1.18 1.86 1.18 2.04 0 2.15-.021 2.15-.402zm-3.84 5.02c-2.12-.924-2.71-4.96-1.01-6.9.818-.933 1.57-1.28 2.8-1.29 1.84-.017 2.99 1.04 3.42 3.11.349 1.68.417 1.64-2.84 1.64h-2.85v.5c0 .729.483 1.55 1.07 1.82 1.21.55 2.82.065 3.14-.948.09-.286.298-.387.795-.387.803 0 .853.262.227 1.19-.75 1.11-1.59 1.56-2.96 1.55-.657-.008-1.47-.128-1.81-.274zm-19.3-.111c-.489-.26-.809-.624-1.03-1.17-.439-1.1-.413-1.18.367-1.18.488 0 .686.087.686.303 0 .167.216.52.481.785.39.39.678.482 1.52.482 1.36 0 1.96-.397 1.88-1.24-.056-.582-.142-.644-1.43-1.04-.754-.233-1.62-.48-1.93-.547-1.92-.425-2.06-3.25-.202-4.13.909-.432 2.56-.436 3.39-.008.656.34 1.38 1.35 1.38 1.92.002.575-1.14.462-1.37-.135-.242-.638-.773-.895-1.85-.895-.633 0-1.01.115-1.29.392-.842.843-.334 1.36 1.93 1.97.963.258 1.87.643 2.23.938.551.464.587.575.507 1.54-.096 1.16-.486 1.74-1.47 2.15-.93.394-2.94.328-3.8-.126zm-7.56.102c-.699-.304-1.42-1.33-1.42-2.01 0-.374.104-.441.685-.441.546 0 .686.077.686.378 0 1.4 3.5 1.64 3.85.267.179-.715-.385-1.16-1.95-1.54-2.46-.594-3.22-1.24-3.01-2.57.241-1.49 1.24-2.26 2.96-2.27 1.44-.013 2.42.498 2.86 1.49.413.923.352 1.11-.366 1.1-.376-.006-.64-.188-.922-.638-.343-.547-.518-.638-1.34-.69-1.15-.074-1.89.336-1.89 1.05 0 .572.534.852 2.64 1.38 2.25.566 2.93 1.65 2.13 3.35-.451.95-1.5 1.44-3.05 1.43-.678-.008-1.52-.132-1.86-.283zm-3.97-4.82c0-.474-.581-1.54-1-1.83-.639-.448-1.77-.406-2.4.09-.511.402-1.1 1.33-1.1 1.74 0 .132.81.206 2.25.206 1.42 0 2.25-.075 2.25-.202zm-4.12 4.7c-1.11-.643-1.6-1.54-1.71-3.12-.121-1.7.194-2.9 1.01-3.84 1.19-1.37 3.76-1.51 5-.271.656.657 1.19 2.08 1.19 3.16v.75h-2.94c-3.25 0-3.2-.023-2.67 1.26.358.858 1.01 1.29 1.93 1.29.955 0 1.77-.42 2.06-1.06.289-.634 1.41-.747 1.41-.142 0 .569-.814 1.62-1.56 2.02-.955.508-2.81.485-3.73-.048zm-19.3-1c1.2-.546 1.67-3.1.874-4.67-.466-.915-.888-1.18-1.9-1.18-1.7 0-2.66 1.74-2.18 3.97.386 1.8 1.7 2.57 3.21 1.88zm-2.57 1.14c-2.13-.966-2.89-4.56-1.41-6.72 1.23-1.8 4.1-2.02 5.58-.436 1.64 1.76 1.41 5.34-.432 6.75-.587.449-.97.57-1.93.619-.732.037-1.44-.047-1.8-.214zm11.3-1.31c.912-.72 1.16-3.11.482-4.61-.521-1.15-2.13-1.41-3.13-.506-.578.517-.639.684-.71 1.94-.091 1.62.19 2.63.887 3.18.661.52 1.81.517 2.47-.007zm-2.62 4.73c-.893-.271-1.35-.6-1.65-1.18-.475-.92-.389-1.18.39-1.18.444 0 .686.093.686.264 0 .766 1.49 1.29 2.61.924.82-.271 1.21-.807 1.4-1.93.158-.937.08-.992-.625-.437-.623.49-2.16.527-3.12.072-1.94-.924-2.62-5.15-1.11-6.95 1.17-1.39 3.04-1.63 4.27-.559l.692.61v-.512c0-.453.078-.51.686-.51h.686v3.91c0 4.31-.184 5.62-.914 6.49-.756.9-2.7 1.38-3.99.988z" style="stroke-width:.999" transform="translate(-314 -587)"/><path d="M132 166c-.209-.543.085-.824.991-.948 1.16-.159 2.2-.7 3.06-1.6l.687-.715.053-15.3c.045-13.2.012-15.4-.237-15.9-.361-.698-1.45-1.23-2.83-1.38-1.15-.126-1.7-.58-1.25-1.03.18-.181 1.21-.175 4.56.027 3.58.216 5.02.217 8.36.005 4.19-.266 4.51-.228 4.37.515-.057.294-.318.389-1.36.492-1.47.146-2.31.51-2.9 1.27-.396.503-.41.73-.41 6.67 0 3.38.05 6.15.114 6.15.062 0 2.42-2.01 5.25-4.47 2.82-2.46 5.65-4.91 6.28-5.44 1.37-1.16 1.61-1.66 1.21-2.44-.364-.704-1.26-1.25-2.71-1.68-.977-.282-1.13-.39-1.08-.753.056-.398.157-.422 1.63-.386 2.19.053 9.92.056 11.6.005 1.29-.04 1.38-.017 1.44.399.034.245-.053.474-.196.513-.142.038-.877.22-1.63.404-2.94.714-4.04 1.45-10.2 6.79-3.13 2.71-5.8 5.04-5.93 5.16-.19.183.179.78 1.71 2.78 1.07 1.4 2.87 3.74 3.98 5.2 8.78 11.5 9.74 12.7 10.7 13.3 1.17.78 2.58 1.42 3.13 1.43.23.002.53.14.67.308.207.25.2.356-.037.593-.255.255-.78.255-4.4.002-3.04-.213-4.82-.24-6.85-.105-1.51.1-3.54.205-4.51.233l-1.77.05-.063-.538c-.055-.486-.001-.54.547-.54 1.26 0 2.56-.91 2.56-1.79 0-.18-2.54-3.63-5.64-7.66l-5.64-7.33-.052 7.04c-.047 6.5-.024 7.09.304 7.65.523.897 1.84 1.73 3.13 1.99 1 .2 1.13.28 1.13.702 0 .468-.025.474-1.62.432-.89-.024-2.81-.127-4.26-.23-1.93-.135-3.7-.112-6.62.089-5.01.344-5.05.344-5.19-.012zm-19.7-19.6c1.31-.641 2.58-1.95 3.13-3.24.941-2.19.939-5.86-.003-7.99-.571-1.29-2-2.71-3.32-3.3-1.94-.872-5.73-1.03-7.61-.317l-.468.178v14.7l.638.286c.487.219 1.33.273 3.58.232 2.76-.05 3.01-.088 4.05-.594zM91 166.2c-.08-.085-.147-.306-.147-.491 0-.25.231-.372.89-.471 1.77-.265 3.25-1.21 3.75-2.4.405-.969.394-29.6-.011-30.6-.333-.796-1.05-1.21-2.72-1.54-1.1-.223-1.22-.296-1.22-.729v-.482l5.3-.16c2.91-.088 8.17-.176 11.7-.196 6.13-.035 6.44-.019 7.94.416 3.75 1.08 5.97 3.01 7.14 6.18.52 1.41.735 4.13.447 5.67-.656 3.49-3.59 6.42-7.23 7.24-.573.128-1.04.295-1.04.371 0 .076.164.349.365.606.2.257 1.36 2.19 2.58 4.29s2.75 4.61 3.41 5.58c2.26 3.32 4.59 5.15 7.24 5.69.987.201 1.22.322 1.22.625 0 .357-.177.374-3.63.35-7.95-.056-10.8-1.49-14.1-7.04-.756-1.29-2.15-3.72-3.09-5.39-2.39-4.23-2.39-4.23-3.9-4.49-.687-.12-1.4-.217-1.58-.217-.3 0-.327.579-.327 6.75v6.75l.499.594c.62.738 2.21 1.53 3.96 1.97 1.13.284 1.34.405 1.4.795l.066.461-3.89-.175c-4.91-.22-6.93-.222-11.3-.01-1.94.093-3.6.1-3.68.015zm90 .191c-3.62-.492-8.9-1.84-9.66-2.47-.201-.167-.258-1.35-.258-5.37 0-4.4.043-5.17.294-5.27.566-.217.812.096 1.25 1.6 1.38 4.72 4.03 7.88 7.61 9.08 1.09.363 1.73.438 3.59.421 5.18-.047 7.84-1.77 8.46-5.47.637-3.85-1.86-6.17-9.72-9.07-3.96-1.46-5.51-2.15-7.06-3.17-3.22-2.11-4.66-4.68-4.66-8.3 0-4.98 3.44-8.48 9.45-9.62 2.83-.536 6.41-.349 10.7.561.764.161 1.96.351 2.67.423 1.12.115 1.38.074 2.09-.323.501-.282.877-.384.988-.27.099.101.278 1.91.399 4.01s.298 4.48.393 5.29c.19 1.6.154 1.77-.375 1.77-.465 0-.64-.25-1.16-1.67-1.96-5.28-6.24-8.28-11.2-7.85-2.66.229-4.24.79-5.46 1.94-1.95 1.84-2.12 5.06-.363 6.8.821.812 4.24 2.44 7.79 3.71 1.56.561 3.56 1.36 4.44 1.77 5.81 2.71 8.5 6.24 8.5 11.2 0 4.77-2.36 8.02-7 9.63-2.67.927-7.68 1.21-11.7.656zm-107-2.15c1.71-.446 2.99-1.21 4.42-2.65 3.42-3.44 4.98-8.75 4.51-15.4-.591-8.34-4.16-14.2-9.41-15.4-2.11-.486-4.79-.122-6.75.916-1.63.865-3.62 3.02-4.58 4.96-3.18 6.43-2.46 17 1.57 23.1 2.52 3.77 6.43 5.48 10.3 4.48zm-6.33 2.15c-9.38-1.57-15.5-8.51-15.9-18-.382-9.63 4.89-16.9 14-19.3 2.58-.674 7.14-.851 9.89-.383 4.7.801 8.11 2.54 11.1 5.67 3.21 3.38 4.78 7.68 4.78 13.1 0 11.6-8.03 19.3-20 19.2-1.24-.01-2.99-.142-3.89-.293zm-50-.226c-.303-.304-.803-1.27-1.15-2.21-6.01-16.5-11.9-32.1-12.3-32.5-.664-.711-1.42-1.04-2.76-1.18-1.12-.124-1.21-.168-1.21-.624 0-.488.01-.49 1.67-.453 2.32.052 12.5.055 14.6.005 1.76-.042 1.77-.041 1.77.448 0 .456-.086.5-1.21.624-1.52.168-2.77.78-2.93 1.44-.141.561-.156.514 4.16 12.5 1.67 4.64 3.07 8.56 3.12 8.71.053.15.135.234.183.187.048-.047.924-3.13 1.95-6.85s2.12-7.71 2.44-8.85l.585-2.08-.598-1.64c-.345-.945-.849-1.9-1.19-2.27-.643-.68-1.99-1.23-3-1.23-.723 0-1.13-.385-.943-.883.122-.317.355-.331 3-.172 3.2.193 7.91.221 12.2.074l2.84-.098v.49c0 .449-.092.5-1.08.615-1.7.195-3.14.959-3.14 1.66 0 .21 1.55 4.6 6.53 18.5.552 1.54 1.06 2.73 1.13 2.65s.355-.987.639-2.01l2.59-9.34c1.14-4.11 2.07-7.74 2.07-8.07 0-.56-.502-1.41-1.17-1.98-.51-.436-2.63-1.41-3.07-1.41-.537 0-.902-.442-.732-.885.122-.317.322-.332 2.41-.173 2.87.218 6.6.216 9.18-.006 1.79-.153 2.02-.136 2.13.154.158.41-.243.909-.732.909-.686 0-2.87 1.13-3.74 1.93-.476.439-1.01 1.09-1.2 1.44-.182.354-1.35 4.13-2.59 8.39-1.25 4.26-2.92 9.96-3.71 12.7-.796 2.7-1.82 6.18-2.27 7.75-.911 3.15-1.21 3.79-1.9 4.1-.715.326-1.15.259-1.79-.277-.74-.622-.031 1.2-8.39-21.5-.904-2.46-1.71-4.59-1.8-4.74-.092-.164-1.49 4.31-3.55 11.3-1.87 6.39-3.58 12.2-3.81 13-.49 1.64-1.19 2.45-2.11 2.45-.414 0-.797-.18-1.16-.54zM192 116c-4.19-1.49-4.56-7.45-.582-9.39 1.44-.705 3.57-.753 4.9-.109 1.94.939 3.27 3.26 2.99 5.24-.266 1.94-1.66 3.68-3.43 4.28-1.09.37-2.8.362-3.87-.018zm-53-37.5c0-.101-.218-.697-.485-1.32-.267-.628-3.17-7.89-6.45-16.1-3.28-8.25-6.7-16.9-7.59-19.1-1.18-2.97-1.67-4-1.77-3.73-.078.203-1.88 4.87-4.01 10.4-9.13 23.6-11.5 29.8-11.5 29.9 0 .113 6.11.184 15.9.184 9.72 0 15.9-.071 15.9-.183zm-64.3 37.6c-.86-.346-1.06-1.7-.354-2.41.155-.155.839-.343 1.52-.417 4.63-.509 9.37-2.95 12.1-6.24.593-.708 1.36-1.76 1.71-2.34.347-.579 2.01-4.67 3.7-9.1 4.11-10.8 9.27-24.3 11.8-30.9 1.13-2.97 2.97-7.78 4.08-10.7 7.7-20.2 9.64-25.3 15.6-40.7.971-2.54 2.52-6.58 3.44-9 1.64-4.29 1.81-4.69 1.97-4.52.043.045.847 1.98 1.79 4.3l2.98 7.36c1.48 3.63 8.94 22 13.2 32.6 1.62 3.99 4.12 10.1 5.54 13.6 1.43 3.51 4.41 10.8 6.62 16.3 6.96 17.1 8.76 21.5 10.7 26.3 2.47 6.12 2.97 7.03 4.76 8.84 2.34 2.35 5.16 3.78 7.9 4.03 1.83.16 2.07.239 2.43.781.272.414.288.619.102 1.24-.397 1.32.141 1.3-11.1.484-8.96-.65-13.9-.649-23.4.002-4.05.276-8.36.527-9.58.559-2.13.055-2.24.038-2.6-.406-.479-.591-.487-1.68-.014-2.15.274-.274.785-.39 2.11-.481 3.84-.263 7.06-1.73 8.33-3.79.926-1.5.886-1.64-3.99-13.7l-4.43-11-36.6-.1-1.63 4.27c-.9 2.35-2.52 6.56-3.59 9.36-1.95 5.06-1.96 5.11-1.89 6.57.09 1.88.648 3.07 2.12 4.52 2 1.97 5.16 3.27 9.46 3.9 1.35.197 2.55.416 2.66.487.626.387.324 2.25-.41 2.53-.382.147-6.73-.188-10.3-.546-7.57-.75-10.7-.752-17-.009-1.4.165-3.38.347-4.41.404l-3.35.185c-.808.045-1.67.002-1.91-.097zm-18.8-.115c-1.07-.378-2.34-1.49-2.87-2.5-.657-1.26-.602-3.25.127-4.58.919-1.68 2.67-2.64 4.81-2.64 2.16.002 3.93 1.06 4.83 2.9.507 1.03.515 3.24.014 4.2-1.26 2.41-4.28 3.56-6.91 2.63zm-55.8-.158c-.507-.54-.625-1.67-.224-2.16.183-.221.598-.312 1.42-.312 4.56 0 9.42-2.92 10.8-6.48.359-.946.371-2.16.371-38.3 0-41.5.101-38.5-1.35-40.2-1.33-1.51-3.5-2.46-7.18-3.12-1.18-.213-2.29-.52-2.45-.683-.354-.354-.391-1.69-.057-2.1.2-.24 1.58-.31 8.33-.423 4.45-.074 11.1-.261 14.7-.415 3.61-.154 11.1-.39 16.6-.524 11-.268 15.6-.125 20.3.629 12.4 2.02 21.1 7.51 25.3 16 1.87 3.76 2.49 6.55 2.63 11.8.214 8.19-1.31 14.2-4.86 19.2-3.91 5.49-9.9 8.67-19 10.1-2.8.432-12.6.489-16.1.094-3.35-.375-9.01-1.19-9.88-1.42-1.28-.344-2.06-1.48-1.54-2.26.398-.596 1-.671 3.93-.486 8.58.543 15-1.23 19.4-5.34 3.2-3.02 5.06-6.83 6.09-12.5.49-2.7.495-9.81.01-12.3-1.06-5.35-2.93-9.02-6.12-12-4.17-3.92-9.77-5.78-16.5-5.46-2.65.127-6.62.659-9.08 1.22l-1.42.324.05 38.7c.05 37.5.062 38.7.422 39.4.878 1.61 3.92 3.93 6.61 5.04 2.03.835 4.47 1.45 6.26 1.57 1.95.137 2.35.384 2.35 1.43 0 1.37-.236 1.49-2.98 1.42-1.33-.033-5.24-.24-8.7-.458s-9.01-.443-12.4-.498c-6-.098-8.07-.01-23.8 1.01-1.49.097-1.61.074-2.03-.37z"/></g></svg>