<svg xmlns="http://www.w3.org/2000/svg" width="42.333mm" height="4.2911mm" viewBox="0 0 150.00001 15.204599"><path d="M145.639 10.86h4.363v4.092h-4.363V10.86zM128.79.249h4.543v5.556L138.097.25h6.038l-5.356 5.546 5.597 9.157h-5.597l-3.099-6.047-2.347 2.457v3.59h-4.543V.25zm-17.12 0h4.242l5.537 8.134V.249h4.282v14.703h-4.282l-5.507-8.074v8.074h-4.272V.249zm-7.833 0h4.553v14.703h-4.553V.249zm-13.901 0h4.543v11.083h7.091v3.62H89.936V.25zM67.169 14.952V.249h7.572q2.106 0 3.22.361 1.113.361 1.795 1.344.682.973.682 2.377 0 1.224-.522 2.116-.521.883-1.434 1.434-.582.351-1.595.582.813.27 1.184.542.25.18.722.772.482.592.642.913l2.196 4.262h-5.135L74.07 10.46q-.461-.873-.822-1.133-.492-.341-1.114-.341h-.4v5.967h-4.564zm4.563-8.746h1.916q.31 0 1.204-.2.45-.09.732-.462.29-.37.29-.852 0-.712-.45-1.093-.452-.381-1.696-.381h-1.996v2.988zM52.255.25h12.176v3.14H56.81v2.336h7.07v2.999h-7.07v2.898h7.843v3.33H52.256V.25zm-17.41 0h4.753l3.31 10.58L46.168.25h4.613l-5.456 14.703h-4.924L34.844.249zm-11.224 0h4.544v11.083h7.09v3.62H23.623V.25zm-7.802 0h4.553v14.703h-4.553V.249zM.003 10.088l4.322-.271q.14 1.053.572 1.605.702.892 2.006.892.973 0 1.494-.451.532-.461.532-1.063 0-.572-.502-1.023-.501-.451-2.327-.853-2.988-.672-4.262-1.785Q.554 6.026.554 4.301q0-1.133.652-2.136Q1.868 1.152 3.182.58q1.324-.582 3.62-.582 2.819 0 4.293 1.053 1.484 1.044 1.765 3.33l-4.282.251q-.17-.993-.722-1.444-.542-.452-1.505-.452-.792 0-1.193.341-.402.331-.402.813 0 .35.331.632.321.29 1.525.541 2.979.642 4.262 1.304 1.294.652 1.876 1.625.592.973.592 2.176 0 1.414-.783 2.608-.782 1.193-2.186 1.815-1.404.612-3.54.612-3.751 0-5.196-1.444T.003 10.088z"/></svg>