<svg xmlns="http://www.w3.org/2000/svg" viewBox="0 0 524.2 112.1"><path d="M22.3 29.4H95v-9.1H22.3c-10.2 0-18.6 8.3-18.6 18.6 0 10.2 8.3 18.6 18.6 18.6h52.4c2.8 0 5 .9 6.7 2.5 2.1 2.1 2.8 4.9 2.8 7 0 3.5-2 9.5-9.5 9.5H0v9.1h74.7c10.2 0 18.6-8.3 18.6-18.6 0-10.2-8.3-18.6-18.6-18.6H22.3c-7 0-9.5-5.7-9.5-9.5.1-3.5 2.1-9.5 9.5-9.5zM157 50.9c-9.6 0-17.4 7.8-17.4 17.4v16.1h6.8V68.3c0-7.7 6.2-10.6 10.6-10.6 4.4 0 10.6 2.7 10.6 10.6v16.1h6.8V68.3c0-9.6-7.8-17.4-17.4-17.4zm78.7.2c-4 0-7.7 1.4-10.6 3.6v-3.8h-6.8v33.6h6.8V68.3c.1-7.5 6.3-10.4 10.6-10.4 4.4 0 10.2 2.7 10.2 10.6h6.8c0-9.6-7.4-17.4-17-17.4zm-39.4-.9c-9.6 0-17.4 7.4-17.4 17s7.8 17.4 17.4 17.4v-6.8c-5.3 0-8.4-3-9.7-6.3h26.7c.3-1.3.5-2.6.5-3.9-.1-9.6-7.9-17.4-17.5-17.4zm-10.4 14.6c.9-3.8 3.9-7.7 10.4-7.7 6.1 0 9.2 3.9 10.2 7.7h-20.6zm-57.7-13.9V67c0 7.7-6.2 10.6-10.6 10.6-4.4 0-10.6-2.7-10.6-10.6V50.9h-6.8V67c0 9.6 7.8 17.4 17.4 17.4 4 0 7.7-1.4 10.6-3.6V88c0 4.4-2.7 10.6-10.6 10.6v6.8c9.6 0 17.4-7.8 17.4-17.4V50.9h-6.8zm195.2 0V67c0 7.7-6.2 10.6-10.6 10.6-4.4 0-10.6-2.7-10.6-10.6V50.9h-6.8V67c0 9.6 7.8 17.4 17.4 17.4 4 0 7.7-1.4 10.6-3.6V88c0 4.4-2.7 10.6-10.6 10.6v6.8c9.6 0 17.4-7.8 17.4-17.4V50.9h-6.8zm-32.6 16.8v-1.3h-.1c-.7-8.7-7.9-15.6-16.8-15.6-9.3 0-16.8 7.5-16.8 16.8s7.5 16.8 16.8 16.8c3.8 0 7.2-1.3 10-3.3V88c0 4.4-2.7 10.6-10.6 10.6v6.8c9.6 0 17.4-7.8 17.4-17.4V67.9c.1-.1.1-.1.1-.2zM274 77.8c-5.6 0-10.1-4.5-10.1-10.1s4.5-10.1 10.1-10.1c5.2 0 9.4 3.9 10 8.9v2.4c-.6 5-4.8 8.9-10 8.9z"/><path fill="#5b77a2" d="M501.3 53.6h-52.7c-.4 2.4-1.2 4.7-2.3 6.9h55c2.5 0 2.9 1.8 2.9 2.9 0 2.9-2.1 2.9-2.9 2.9h-58.8c-1.4 1.7-3 3.1-4.8 4.4v41.4h6.9V73.2h56.7c7.3 0 9.8-5.7 9.8-9.8 0-4.1-2.7-9.8-9.8-9.8zM364 22.9c0 4 2.7 9.8 9.8 9.8h48.1c8.8 0 16 7.2 16 16s-7.2 16-16 16h-74.5v6.9h74.5c12.6 0 22.9-10.3 22.9-22.9 0-12.6-10.3-22.9-22.9-22.9h-48.1c-2.5 0-2.9-1.8-2.9-2.9 0-2.9 2.1-2.9 2.9-2.9h72.6v-6.9h-72.6c-7.3 0-9.8 5.8-9.8 9.8z"/><path fill="#5b77a2" d="M373.8 0c-12.6 0-22.9 10.3-22.9 22.9 0 12.6 10.3 22.9 22.9 22.9h48.1c2.5 0 2.9 1.8 2.9 2.9 0 2.9-2.1 2.9-2.9 2.9h-74.5v6.9h74.5c7.3 0 9.8-5.7 9.8-9.8 0-4-2.7-9.8-9.8-9.8h-48.1c-8.8 0-16-7.2-16-16s7.2-16 16-16h72.6V0h-72.6zm127.5 40.5h-53.6c.7 2.2 1.1 4.5 1.2 6.9h52.3c10.5 0 16 7.2 16 16s-7.2 16-16 16h-50.4v32.7h6.9V86.3h43.5c12.6 0 22.9-10.3 22.9-22.9.1-13.5-9.3-22.9-22.8-22.9z"/></svg>