<svg xmlns="http://www.w3.org/2000/svg" viewBox="0 0 250 31.407"><g fill="#e6521e"><path d="M242.433 15.36c1.79-3.63 3.612-5.444 5.463-5.444 1.404 0 2.107.713 2.107 2.138 0 1.038-.245 2.568-.734 4.589-.49 2.02-.734 3.55-.734 4.589 0 .819.2 1.488.599 2.007-.766.486-1.521.729-2.267.729-1.252 0-1.878-.603-1.878-1.808 0-.892.134-1.997.4-3.315.672-3.323 1.009-5.15 1.009-5.483 0-.366-.114-.55-.34-.55-.666 0-1.684 1.452-3.056 4.355-1.318 2.79-1.977 4.66-1.977 5.613 0 .253.056.556.17.908-.68.187-1.335.28-1.968.28-1.145 0-1.718-.413-1.718-1.238 0-.413.084-.952.25-1.618l.4-1.598c.938-3.755 1.408-6.405 1.408-7.95 0-.366-.067-.712-.2-1.038.885-.313 1.651-.47 2.297-.47 1.018 0 1.528.423 1.528 1.269 0 .466-.253 1.81-.76 4.034zm-15.83 8.738c-1.424 0-2.558-.44-3.4-1.318-.842-.88-1.263-2.034-1.263-3.466 0-2.27.699-4.358 2.097-6.262 1.525-2.09 3.382-3.136 5.573-3.136 1.385 0 2.5.453 3.345 1.359.826.878 1.239 2.017 1.239 3.415 0 2.237-.693 4.318-2.078 6.242-1.518 2.11-3.355 3.166-5.512 3.166zm.69-2.018c1.045 0 1.87-1.045 2.476-3.135.446-1.538.67-3.013.67-4.425 0-1.717-.513-2.576-1.538-2.576-1.08 0-1.925 1.042-2.537 3.126-.446 1.518-.67 2.996-.67 4.434 0 1.718.533 2.576 1.599 2.576zm-12.794-11.515c.919-.34 1.755-.509 2.507-.51 1.012.001 1.518.387 1.518 1.16 0 .352-.063.775-.19 1.268-1.105 4.327-1.658 7.274-1.658 8.838 0 .76.2 1.398.6 1.918-.773.486-1.522.729-2.248.729-1.305 0-1.957-.603-1.957-1.808 0-1.165.286-2.89.859-5.173.572-2.284.859-4.008.859-5.173 0-.42-.097-.836-.29-1.249zm4.504-2.586c-.712.34-1.365.509-1.957.509-.892 0-1.338-.246-1.338-.74 0-.166.033-.415.1-.748.066-.333.1-.583.1-.75 0-.112-.044-.249-.13-.409.858-.312 1.584-.469 2.177-.469.972 0 1.458.37 1.458 1.109 0 .326-.137.825-.41 1.498zm-16.778 6.052h-.45c-.759 0-1.504.146-2.237.44a7.562 7.562 0 0 1-.05-.7c0-.865.327-1.415.979-1.648.326-.12 1.049-.18 2.167-.18.36-1.83.54-3.009.54-3.535 0-.42-.097-.835-.29-1.248.905-.34 1.741-.51 2.507-.51 1.012 0 1.518.387 1.518 1.159 0 .486-.114 1.175-.34 2.067l-.52 2.068h1.1c.885 0 1.847-.1 2.886-.3-.087 1.611-1.016 2.417-2.787 2.417-.18 0-.45-.005-.809-.015-.36-.01-.629-.015-.809-.015-.612 2.916-.918 4.877-.918 5.882 0 1.052.386 1.578 1.158 1.578.68 0 1.485-.34 2.417-1.019.22.427.33.803.33 1.129 0 .772-.507 1.401-1.519 1.887a5.844 5.844 0 0 1-2.536.59c-2.21 0-3.316-1.089-3.316-3.266 0-1.432.326-3.692.979-6.781zm-10.636 4.614c-1.997 3.635-3.842 5.453-5.533 5.453-1.75 0-2.626-1.232-2.626-3.696 0-2.27.619-4.497 1.857-6.68 1.445-2.537 3.22-3.806 5.323-3.806.972 0 1.831.247 2.577.74.366-.407.869-.61 1.508-.61a5.21 5.21 0 0 1 2.267.53c-.506 1.025-.979 2.676-1.418 4.953-.406 2.144-.61 3.868-.61 5.173 0 .952.17 1.788.51 2.507a2.997 2.997 0 0 1-2.017.759c-1.405 0-2.108-.776-2.108-2.327 0-.8.09-1.798.27-2.996zm1.019-5.074c-.773-1.038-1.538-1.558-2.297-1.558-.952 0-1.755 1.066-2.407 3.196-.52 1.685-.78 3.16-.78 4.425 0 .972.22 1.458.66 1.458.466 0 1.342-1.112 2.627-3.336.945-1.625 1.677-3.02 2.197-4.185zm-21.342 10.117a6.895 6.895 0 0 1-1.898.28c-.999 0-1.498-.393-1.498-1.179 0-.32.11-.972.33-1.957.958-4.308 1.438-6.831 1.438-7.57 0-.247-.084-.37-.25-.37-.58 0-1.591 1.377-3.036 4.13s-2.167 4.655-2.167 5.707c0 .293.056.613.17.96-.68.186-1.302.279-1.868.279-1.092 0-1.638-.413-1.638-1.239 0-.432.08-.972.24-1.617 1.212-4.9 1.817-8.093 1.817-9.578 0-.346-.07-.682-.21-1.008.886-.313 1.629-.47 2.228-.47.952 0 1.428.42 1.428 1.259 0 .539-.097 1.215-.29 2.027l-.479 2.017c2.07-3.628 3.941-5.443 5.613-5.443 1.198 0 1.797.716 1.797 2.148 0 .392-.073.942-.22 1.647-.16.766-.25 1.315-.27 1.648 2.085-3.628 3.98-5.443 5.684-5.443 1.218 0 1.827.67 1.827 2.008 0 .4-.116 1.168-.35 2.307-.778 3.808-1.168 6.135-1.168 6.98 0 .826.196 1.502.59 2.028-.76.486-1.485.73-2.178.73-1.185 0-1.778-.603-1.778-1.809 0-.965.147-2.167.44-3.605.652-3.196.979-4.96.979-5.293 0-.246-.084-.37-.25-.37-.573 0-1.581 1.377-3.026 4.13s-2.167 4.656-2.167 5.708c0 .293.053.612.16.958zm-17.887-13.122c.919-.34 1.755-.51 2.507-.51 1.012 0 1.518.386 1.518 1.159 0 .353-.063.775-.19 1.268-1.105 4.328-1.658 7.274-1.658 8.839 0 .759.2 1.398.6 1.917-.773.486-1.522.73-2.248.73-1.305 0-1.957-.603-1.957-1.809 0-1.165.286-2.89.859-5.173.572-2.283.859-4.008.859-5.173 0-.42-.097-.836-.29-1.248zm4.504-2.587c-.712.34-1.365.51-1.957.51-.892 0-1.338-.247-1.338-.74 0-.166.033-.416.1-.749.066-.333.1-.582.1-.749 0-.113-.044-.25-.13-.41.858-.312 1.584-.469 2.177-.469.972 0 1.458.37 1.458 1.109 0 .326-.137.826-.41 1.498zm-17.636 7.38c1.79-3.628 3.612-5.443 5.463-5.443 1.404 0 2.107.713 2.107 2.138 0 1.038-.245 2.568-.734 4.589-.49 2.02-.734 3.55-.734 4.589 0 .819.2 1.488.599 2.007-.766.486-1.521.73-2.267.73-1.252 0-1.878-.603-1.878-1.808 0-.893.134-1.998.4-3.316.672-3.322 1.009-5.15 1.009-5.483 0-.366-.114-.55-.34-.55-.666 0-1.685 1.452-3.056 4.355-1.318 2.79-1.977 4.66-1.977 5.613 0 .253.056.556.17.909-.68.186-1.336.28-1.968.28-1.145 0-1.718-.414-1.718-1.24 0-.412.083-.951.25-1.617l.4-1.598c.938-3.755 1.407-6.405 1.407-7.95 0-.366-.066-.712-.2-1.038.886-.313 1.652-.47 2.298-.47 1.018 0 1.528.423 1.528 1.269 0 .466-.253 1.81-.76 4.035zm-17.777 2.887c-.24.506-.589 1.271-1.048 2.297-.433 1.005-.65 1.847-.65 2.526 0 .147.01.28.03.4-.972.333-1.76.5-2.366.5-.66 0-.99-.247-.99-.74 0-.306.12-.676.36-1.109l5.583-10.446c.473-.852 1.295-2.4 2.467-4.644l1.558-.42c.592-.16 1.122-.24 1.588-.24.819 0 1.228.617 1.228 1.848 0 .38-.01.953-.03 1.718-.02.766-.03 1.338-.03 1.718v5.603c0 2.77.42 4.727 1.258 5.872-.992.56-1.904.839-2.736.839-1.139 0-1.751-1.139-1.838-3.416l-.09-2.307zm.79-1.848h3.555l-.02-1.468V13.81c0-.426.016-1.092.05-1.997.026-.72.04-1.278.04-1.678v-.32l-.02-1.018a124.565 124.565 0 0 0-3.606 7.6zm-21.853 7.7c-1.424 0-2.558-.44-3.4-1.318-.842-.88-1.263-2.034-1.263-3.466 0-2.27.699-4.357 2.097-6.262 1.524-2.09 3.382-3.136 5.573-3.136 1.384 0 2.5.453 3.345 1.359.826.879 1.239 2.017 1.239 3.415 0 2.237-.693 4.318-2.078 6.242-1.518 2.11-3.355 3.166-5.513 3.166zm.69-2.017c1.045 0 1.87-1.046 2.476-3.136.446-1.538.67-3.013.67-4.425 0-1.717-.513-2.576-1.539-2.576-1.078 0-1.924 1.042-2.536 3.126-.446 1.518-.67 2.996-.67 4.434 0 1.718.533 2.577 1.598 2.577zm-15.72-8.05h-.45c-.758 0-1.504.147-2.236.44a7.574 7.574 0 0 1-.05-.7c0-.865.326-1.414.979-1.647.326-.12 1.048-.18 2.167-.18.36-1.831.539-3.01.539-3.536 0-.419-.097-.835-.29-1.248.906-.34 1.742-.51 2.507-.51 1.012 0 1.518.387 1.518 1.16 0 .485-.113 1.174-.34 2.067l-.519 2.067h1.099c.885 0 1.847-.1 2.886-.3-.087 1.612-1.015 2.417-2.786 2.417-.18 0-.45-.005-.81-.015-.359-.01-.628-.015-.808-.015-.613 2.916-.919 4.877-.919 5.882 0 1.052.386 1.578 1.159 1.578.679 0 1.484-.34 2.416-1.018.22.426.33.802.33 1.128 0 .773-.506 1.402-1.518 1.888a5.844 5.844 0 0 1-2.537.589c-2.21 0-3.315-1.089-3.315-3.266 0-1.431.326-3.692.978-6.78zM73.084 24.098c-1.424 0-2.558-.44-3.4-1.319-.842-.879-1.264-2.034-1.264-3.465 0-2.27.7-4.358 2.098-6.262 1.524-2.09 3.382-3.136 5.572-3.136 1.385 0 2.5.453 3.346 1.358.826.88 1.238 2.018 1.238 3.416 0 2.237-.692 4.317-2.077 6.242-1.518 2.11-3.355 3.165-5.513 3.165zm.69-2.018c1.045 0 1.87-1.045 2.476-3.136.446-1.538.67-3.012.67-4.424 0-1.718-.513-2.577-1.539-2.577-1.078 0-1.924 1.042-2.536 3.126-.446 1.518-.67 2.996-.67 4.435 0 1.717.533 2.576 1.598 2.576zM54.03 11.074c.932-.68 1.884-1.019 2.856-1.019.959 0 1.518.772 1.678 2.317a384.7 384.7 0 0 0 .799 7.39l2.357-4.074c1.059-1.831 1.588-3.273 1.588-4.325 0-.272-.063-.662-.19-1.168 2.097.067 3.146.566 3.146 1.498 0 .972-.832 2.753-2.497 5.343-1.624 2.543-3.375 4.82-5.253 6.831-2.09 2.244-3.645 3.366-4.664 3.366-1.085 0-1.628-.37-1.628-1.109 0-.54.3-1.218.9-2.037.385.28.781.42 1.187.42 1 0 1.845-.64 2.537-1.918-1.018-6.485-1.957-10.323-2.816-11.515zM39.68 23.358c-.906.406-1.718.609-2.437.609-.932 0-1.398-.32-1.398-.959 0-.426.09-.979.27-1.658 1.604-6.059 2.406-10.243 2.406-12.553 0-.466-.13-.902-.39-1.308 1.092-.56 2.098-.84 3.017-.84.845 0 1.268.31 1.268.93l-.54 2.716-.868 4.384c4.081-5.36 7.02-8.04 8.819-8.04.925 0 1.388.437 1.388 1.31 0 .106-.05.518-.15 1.237l-.53-.02h-.16c-.838 0-1.717.33-2.636.99-.699.505-1.468 1.238-2.307 2.196-.619.753-1.238 1.502-1.857 2.247 2.097 4.521 3.975 6.781 5.632 6.781h.11c-.306 1.818-1.118 2.727-2.437 2.727-1.225 0-2.503-1.102-3.835-3.306a24.706 24.706 0 0 1-2.277-4.923c-.785 3.662-1.178 5.882-1.178 6.661 0 .206.03.48.09.819zM15.822 10.217c-1.9-.026-3.734 1.195-4.454 2.952-.752 1.727-.363 3.87.955 5.217 1.268 1.365 3.356 1.863 5.105 1.226 1.813-.616 3.15-2.397 3.222-4.312.12-1.862-.96-3.723-2.627-4.554a4.819 4.819 0 0 0-2.201-.53zm-2.317 2.916c1.127-.032 2.125 1.019 2.035 2.143-.026 1.127-1.126 2.069-2.243 1.922-1.124-.084-2.009-1.228-1.806-2.337.132-.97 1.034-1.746 2.014-1.728zm1.873-4.271c-.113-.04-.379-.417-.592-.836-.236-.468-.97-1.313-1.896-2.183-1.788-1.68-2.243-2.374-2.243-3.414 0-1.557 1.22-2.425 3.41-2.425 2.074 0 3.797 1.07 4.332 2.691.49 1.485-.145 3.592-1.554 5.16-.792.88-1.14 1.12-1.457 1.007zm4.879 2.181c-.454-.264-.34-.539.833-2 .633-.79 1.48-2.116 1.964-3.08.93-1.85 1.395-2.308 2.535-2.501 1.982-.335 3.821 1.302 3.813 3.393-.009 2.473-1.47 3.463-6.079 4.118-1.953.277-2.682.294-3.066.07zM4.21 11.62c-1.854-.337-2.74-.7-3.506-1.433C.025 9.536 0 9.48 0 8.55c0-1.876 1.493-3.235 3.562-3.243 1.227-.005 1.846.337 3.233 1.783.618.644 1.825 1.666 2.685 2.27 1.657 1.169 1.813 1.447 1.027 1.824-1.322.633-4.136.828-6.298.436zm-.773 15.18c-1.78-.634-2.576-3.245-1.514-4.962.556-.9 1.129-1.121 2.712-1.046 3.462.164 4.379.114 5.236-.288.447-.21.926-.337 1.065-.284.422.162.308 1.22-.252 2.341-1.381 2.764-5.17 4.98-7.247 4.24zm20.255.773c-.79-.17-1.406-1.018-1.786-2.452-.467-1.761-.837-2.592-1.615-3.622-.348-.462-.634-.949-.634-1.082 0-.889 3.885-1.028 5.663-.203 1.994.927 2.967 2.16 2.967 3.764 0 1.034-.273 1.706-.975 2.395-.986.968-2.45 1.454-3.62 1.2zm-9.788 3.786c-3.07-.597-3.656-4.323-1.02-6.507 1.627-1.35 2.011-1.772 2.517-2.768.29-.571.63-1.039.754-1.039.296 0 1.514 2.452 1.823 3.67.343 1.352.313 3.668-.057 4.48-.671 1.476-2.499 2.46-4.016 2.164z"/></g></svg>