<svg xmlns="http://www.w3.org/2000/svg" width="150" height="54.334" viewBox="0 0 150 54.334397"><path d="M108.9 42.563c-.525 0-1.05.033-1.59.066-.558.032-1.099.082-1.623.147-.525.066-1.05.148-1.542.246-.491.098-.95.197-1.36.295-.771.23-1.46.476-2.05.754a9.336 9.336 0 0 0-1.64.951c-1.31 1-1.967 2.148-1.967 3.443 0 1.263.64 2.394 1.951 3.394.492.394 1.099.738 1.804 1.033.705.311 1.475.574 2.328.787.836.213 1.738.377 2.705.492.951.115 1.951.164 2.968.164 1.082 0 2.147-.066 3.197-.197s2.016-.328 2.918-.59a14.31 14.31 0 0 0 2.066-.722 8.644 8.644 0 0 0 1.607-.95c.655-.492 1.147-1.017 1.492-1.607a3.704 3.704 0 0 0 .508-1.853c0-1.246-.656-2.377-1.968-3.377a10.59 10.59 0 0 0-1.82-1.033 16.607 16.607 0 0 0-2.311-.77 22.044 22.044 0 0 0-2.705-.493c-.951-.114-1.951-.18-2.968-.18zm0 .59c.984 0 1.951.066 2.886.164.918.115 1.787.279 2.606.476.804.196 1.542.442 2.214.737a9.14 9.14 0 0 1 1.738 1c1.131.886 1.705 1.837 1.705 2.886 0 .787-.279 1.492-.836 2.148-.558.656-1.345 1.213-2.328 1.672-1 .476-2.181.853-3.542 1.115-1.36.262-2.853.394-4.46.394-.983 0-1.95-.05-2.869-.164a20.264 20.264 0 0 1-2.623-.46c-.82-.196-1.557-.458-2.23-.754-.688-.295-1.262-.623-1.721-1-.558-.426-.984-.885-1.262-1.377-.296-.492-.427-1-.427-1.525 0-.901.377-1.721 1.148-2.475.77-.755 1.87-1.378 3.312-1.87.426-.147.918-.278 1.459-.41a23.048 23.048 0 0 1 1.656-.294 29.215 29.215 0 0 1 1.77-.197c.607-.033 1.214-.066 1.804-.066zm-34.494-.18v10.936h12.149c.853 0 1.672-.017 2.46-.082.786-.066 1.491-.148 2.114-.279a11.849 11.849 0 0 0 1.59-.393 7.416 7.416 0 0 0 1.28-.59c.59-.345 1.049-.755 1.36-1.214a2.6 2.6 0 0 0 .476-1.492c0-.492-.164-.983-.476-1.443-.326-.46-.769-.87-1.359-1.23-.738-.444-1.738-.77-2.984-1-1.262-.23-2.754-.345-4.476-.345h-2.23c.18-.098.328-.262.443-.459.099-.196.164-.41.164-.672 0-.279-.082-.54-.213-.803a1.894 1.894 0 0 0-.59-.607 1.556 1.556 0 0 0-.345-.147c-.13-.033-.262-.066-.426-.099a5.067 5.067 0 0 0-.574-.065c-.23 0-.492-.017-.787-.017h-7.574zm12.149 10.329H75.029v-6.853h11.509a29.314 29.314 0 0 1 4.476.344c.59.131 1.082.262 1.492.393.41.132.803.312 1.18.525.492.295.87.64 1.132 1 .262.36.393.754.393 1.164 0 .295-.082.574-.213.836a2.556 2.556 0 0 1-.574.771 4.14 4.14 0 0 1-.885.656c-.36.197-.738.36-1.164.492-.722.23-1.574.393-2.558.508a28.54 28.54 0 0 1-3.263.164zm-4.574-7.46h-6.952V43.58h6.952a9.4 9.4 0 0 1 1.131.049c.23.033.426.082.574.147.18.099.328.23.443.394.098.164.163.344.163.54s-.049.362-.147.525a.952.952 0 0 1-.36.361c-.083.05-.165.082-.263.115s-.213.066-.344.082-.296.033-.492.033c-.197.016-.443.016-.705.016zm-21.44-3.279c-.525 0-1.05.033-1.59.066-.558.032-1.1.082-1.624.147a21.62 21.62 0 0 0-1.54.246c-.493.099-.952.197-1.362.295-.77.23-1.459.476-2.049.754a9.336 9.336 0 0 0-1.64.951c-1.311 1-1.967 2.148-1.967 3.443 0 1.263.64 2.394 1.951 3.394.492.394 1.099.738 1.804 1.033.705.312 1.475.574 2.328.787.836.213 1.738.377 2.705.492.95.115 1.95.164 2.967.164 1.083 0 2.148-.066 3.198-.197s2.016-.328 2.918-.59a14.31 14.31 0 0 0 2.066-.722 8.644 8.644 0 0 0 1.606-.95c.656-.492 1.148-1.017 1.492-1.607a3.704 3.704 0 0 0 .509-1.853c0-1.246-.656-2.377-1.968-3.377a10.59 10.59 0 0 0-1.82-1.033 16.607 16.607 0 0 0-2.311-.77 22.044 22.044 0 0 0-2.706-.493c-.95-.114-1.95-.18-2.967-.18zm0 .59c.983 0 1.95.066 2.885.164.918.115 1.787.279 2.607.476.803.196 1.541.442 2.214.737a9.14 9.14 0 0 1 1.737 1c1.132.886 1.706 1.837 1.706 2.886 0 .787-.28 1.492-.837 2.148-.557.656-1.344 1.213-2.328 1.672-1 .476-2.18.853-3.541 1.115-1.361.263-2.853.394-4.46.394-.983 0-1.95-.05-2.869-.164a20.264 20.264 0 0 1-2.623-.46c-.82-.196-1.558-.458-2.23-.754-.688-.295-1.262-.623-1.721-1-.558-.426-.984-.885-1.263-1.377-.295-.492-.426-1-.426-1.525 0-.901.377-1.721 1.148-2.475.77-.754 1.869-1.378 3.312-1.87.426-.147.918-.278 1.459-.41a23.048 23.048 0 0 1 1.656-.294 29.215 29.215 0 0 1 1.77-.197c.607-.033 1.214-.066 1.804-.066zm-32.333 3.59 20.428 7.264v-.656L32.569 47.63c-.066-.016-.148-.033-.213-.065s-.197-.066-.361-.132c-.099-.032-.18-.065-.279-.098l-.295-.098-.393-.131c-.099-.033-.197-.05-.263-.082l-.197-.05c-.067-.017-.147-.049-.245-.082-.263-.065-.46-.13-.623-.18-.164-.033-.296-.082-.394-.115-.115-.033-.213-.049-.295-.065l-.279-.066h.541c.082 0 .18-.016.312-.033.115 0 .262-.016.442-.032.28-.017.492-.033.623-.05s.263-.032.427-.065c.278-.033.574-.066.869-.099.295-.032.54-.082.737-.114l15.953-2.558v-.64l-20.428 3.263v-3.164h-.623v10.936h.623v-7.165zM119.81 0c-.185 0-.37.012-.561.023a8.771 8.771 0 0 0-1.117.139c-.173.035-.335.07-.48.104a5.165 5.165 0 0 0-.723.266 3.295 3.295 0 0 0-.579.336c-.463.353-.694.758-.694 1.215 0 .445.226.845.688 1.197.174.14.388.26.637.365.249.11.52.202.821.278.295.075.614.133.955.173.336.04.689.058 1.047.058.382 0 .758-.023 1.128-.07a6.61 6.61 0 0 0 1.03-.208c.278-.075.52-.162.73-.254a3.05 3.05 0 0 0 .566-.336 1.93 1.93 0 0 0 .527-.567c.115-.202.179-.422.179-.654 0-.44-.231-.838-.694-1.191a3.737 3.737 0 0 0-.642-.365 5.86 5.86 0 0 0-.816-.272c-.3-.075-.62-.133-.95-.173-.34-.04-.69-.064-1.05-.064zm0 .208c.347 0 .688.023 1.018.058.324.04.63.098.92.168.284.07.544.156.781.26.237.104.44.226.613.353.4.313.602.648.602 1.018 0 .278-.098.527-.295.758-.197.232-.474.429-.821.59-.353.168-.77.301-1.25.394a8.34 8.34 0 0 1-1.574.139c-.347 0-.688-.018-1.012-.058a7.151 7.151 0 0 1-.926-.162c-.29-.07-.55-.162-.787-.266a2.508 2.508 0 0 1-.607-.353 1.655 1.655 0 0 1-.446-.486 1.025 1.025 0 0 1-.15-.538c0-.318.133-.608.405-.874s.66-.486 1.168-.66a5.759 5.759 0 0 1 1.1-.248c.202-.029.41-.052.624-.07.215-.011.429-.023.637-.023zm-5.046-.063v3.859h.22V.144h-.22zm-8.238 0v3.859h4.287c.3 0 .584-.012.839-.035.254-.023.486-.064.7-.122.208-.057.405-.127.579-.214a2.62 2.62 0 0 0 .486-.3c.22-.174.387-.365.503-.585.116-.214.173-.44.173-.671s-.057-.451-.173-.671a1.854 1.854 0 0 0-.503-.59 2.967 2.967 0 0 0-.486-.301 3.762 3.762 0 0 0-1.28-.33 9.294 9.294 0 0 0-.844-.04h-4.281zm4.287 3.645h-4.067V.365l4.061-.006c.295 0 .567.017.81.04.237.023.463.064.666.11a2.862 2.862 0 0 1 1 .475c.186.15.33.324.434.509.105.19.157.387.157.584s-.052.393-.157.579c-.104.19-.248.358-.44.509a2.508 2.508 0 0 1-.995.474 4.29 4.29 0 0 1-.665.116 8.588 8.588 0 0 1-.804.035zM98.593.145v1.544c0 .174.006.324.017.457.012.133.035.255.064.36s.07.202.116.294c.046.093.11.18.185.266.139.174.312.324.526.457.209.14.452.25.724.342.266.092.56.167.879.214.318.052.654.075 1.012.075.336 0 .66-.017.967-.064.306-.046.59-.11.856-.196.26-.087.497-.191.706-.319.208-.127.387-.271.538-.433.08-.093.156-.186.214-.278.058-.093.104-.197.139-.313.034-.115.058-.243.075-.381.011-.14.023-.301.023-.486V.144h-.22v1.54c0 .162-.006.3-.017.422a2.182 2.182 0 0 1-.058.324c-.023.092-.058.18-.098.26a2.104 2.104 0 0 1-.157.237c-.127.162-.295.301-.491.429a3.23 3.23 0 0 1-.683.318c-.255.087-.538.15-.839.196-.307.047-.625.07-.96.07a5.84 5.84 0 0 1-.92-.064 4.694 4.694 0 0 1-.816-.185 3.398 3.398 0 0 1-.673-.295 2.047 2.047 0 0 1-.497-.4 1.203 1.203 0 0 1-.185-.248 1.014 1.014 0 0 1-.122-.278c-.029-.098-.052-.214-.064-.341s-.017-.272-.017-.44V.145h-.22zm-4.231.214v3.645h.22V.359h3.465V.145H90.89v.214h3.472zm-11.064 3.43v.215h.104c.15 0 .283 0 .41-.012.128-.006.244-.017.354-.035.11-.011.22-.034.324-.058.104-.023.208-.057.318-.092.231-.07.445-.162.654-.278a4.29 4.29 0 0 0 .624-.41c.07-.058.145-.116.22-.186a6.83 6.83 0 0 0 .25-.225c.092-.081.19-.18.3-.29.11-.104.237-.231.382-.376l.584-.584c.232-.231.434-.422.608-.567.173-.139.347-.249.52-.33.174-.08.359-.133.556-.162.196-.023.44-.04.729-.04h.48V.145h-.498c-.243 0-.457.011-.636.034s-.347.052-.503.099c-.116.034-.22.075-.313.121-.098.046-.197.11-.3.18-.105.075-.22.167-.348.283s-.272.255-.44.417l-.585.578-.578.584c-.22.22-.446.417-.677.585a4.035 4.035 0 0 1-.718.422 3.414 3.414 0 0 1-.775.266 4.207 4.207 0 0 1-.845.075h-.202zM69.2.475l6.815 3.564V.145h-.22v3.529L68.981.11v3.894h.22V.474zM64.15 0c-.185 0-.37.012-.561.023a8.772 8.772 0 0 0-1.117.139c-.174.035-.336.07-.48.104a5.165 5.165 0 0 0-.723.266 3.295 3.295 0 0 0-.579.336c-.462.353-.694.758-.694 1.215 0 .445.226.845.689 1.197.173.14.387.26.636.365.249.11.52.202.821.278.296.075.614.133.955.173.336.04.689.058 1.047.058.382 0 .758-.023 1.128-.07.37-.046.712-.115 1.03-.208.278-.075.521-.162.73-.254a3.05 3.05 0 0 0 .566-.336 1.93 1.93 0 0 0 .527-.567c.115-.202.18-.422.18-.654 0-.44-.232-.838-.695-1.191a3.73 3.73 0 0 0-.642-.365 5.876 5.876 0 0 0-.816-.272 7.776 7.776 0 0 0-.955-.173A8.763 8.763 0 0 0 64.15 0zm0 .208c.347 0 .688.023 1.018.058.324.04.63.098.92.168.283.07.544.156.781.26s.44.226.613.353c.4.313.602.648.602 1.018 0 .278-.098.527-.295.758s-.474.429-.822.59c-.353.168-.77.301-1.25.394a8.34 8.34 0 0 1-1.573.139c-.347 0-.688-.018-1.012-.058-.33-.035-.637-.093-.926-.162s-.55-.162-.787-.266a2.505 2.505 0 0 1-.607-.353 1.663 1.663 0 0 1-.446-.486 1.026 1.026 0 0 1-.15-.538c0-.318.133-.608.404-.874s.66-.486 1.17-.66a5.758 5.758 0 0 1 1.098-.248c.203-.029.411-.052.625-.07.214-.011.428-.023.637-.023zM59.104.145v3.859h.22V.144h-.22zm-4.266.214v3.645h.22V.359h3.466V.145h-7.157v.214h3.471zM49.13.109 45.2 4.005h.319l2.545-2.529h2.158l2.586 2.529h.324L49.13.11zm.868 1.152h-1.712l.85-.839.862.84zM38.334.11l-2.337 3.894h.266L38.41.417l2.146 1.26L42.72.418l2.14 3.587h.255L42.795.11l-2.239 1.313L38.334.11zm-3.05.035v3.859h.22V.144h-.22zm-7.747.33 6.816 3.563V.145h-.22v3.529L27.317.11v3.894h.22V.474zM22.811.11l-3.928 3.894h.318l2.546-2.529h2.158l2.586 2.529h.324L22.811.11zm.868 1.151h-1.713l.85-.839.863.84z"/><path fill="#ff3d3d" d="M0 10.734v24.854h27.611c1.938 0 3.763-.075 5.403-.224 1.64-.149 3.13-.41 4.509-.782 1.341-.373 2.608-.82 3.726-1.379 1.118-.521 2.161-1.192 3.13-1.937 1.416-1.118 2.496-2.348 3.242-3.764.745-1.378 1.118-2.832 1.118-4.322s-.373-2.907-1.118-4.323c-.746-1.415-1.826-2.682-3.242-3.8a19.11 19.11 0 0 0-3.13-1.938c-1.118-.522-2.385-.969-3.726-1.341-1.379-.373-2.87-.634-4.509-.783s-3.465-.26-5.44-.26H0zm27.611 23.475H1.416V12.15l26.158-.037c1.9 0 3.652.112 5.217.26 1.527.15 2.98.41 4.285.709 1.267.335 2.46.745 3.502 1.266s2.05 1.118 2.944 1.789a11.507 11.507 0 0 1 2.795 3.279c.67 1.23 1.006 2.497 1.006 3.763s-.336 2.534-1.006 3.727c-.671 1.23-1.603 2.31-2.832 3.279a16.607 16.607 0 0 1-2.907 1.825c-1.043.522-2.235.932-3.502 1.23-1.304.335-2.72.596-4.285.745s-3.317.224-5.18.224z"/><path d="M60.43 9.802c-1.192 0-2.385.075-3.614.15-1.267.074-2.497.185-3.69.335s-2.384.335-3.502.558a84.349 84.349 0 0 0-3.093.671c-1.75.522-3.316 1.08-4.657 1.714-1.379.634-2.609 1.342-3.726 2.161-2.981 2.273-4.472 4.882-4.472 7.825 0 2.87 1.453 5.44 4.434 7.714 1.118.894 2.497 1.676 4.1 2.347 1.601.708 3.353 1.304 5.29 1.789 1.9.484 3.95.857 6.148 1.118 2.162.26 4.435.372 6.745.372 2.46 0 4.881-.149 7.266-.447s4.583-.745 6.633-1.341c1.788-.485 3.353-1.044 4.695-1.64 1.341-.596 2.533-1.341 3.651-2.161 1.49-1.118 2.609-2.31 3.391-3.652.745-1.304 1.155-2.72 1.155-4.21 0-2.832-1.49-5.403-4.471-7.676-1.193-.857-2.571-1.64-4.136-2.348a37.67 37.67 0 0 0-5.255-1.75 49.998 49.998 0 0 0-6.148-1.119 56.53 56.53 0 0 0-6.744-.41zm0 1.341c2.236 0 4.434.15 6.558.373 2.087.26 4.062.634 5.925 1.08 1.826.448 3.502 1.007 5.03 1.678a20.768 20.768 0 0 1 3.95 2.273c2.57 2.012 3.875 4.173 3.875 6.558 0 1.788-.633 3.39-1.9 4.88-1.267 1.491-3.056 2.758-5.292 3.802-2.273 1.08-4.955 1.937-8.048 2.533-3.093.597-6.484.895-10.135.895-2.236 0-4.434-.112-6.521-.373A46.069 46.069 0 0 1 47.91 33.8a29.907 29.907 0 0 1-5.068-1.714c-1.565-.67-2.869-1.416-3.912-2.273-1.267-.969-2.236-2.012-2.87-3.13a6.602 6.602 0 0 1-.968-3.466c0-2.049.857-3.912 2.608-5.626s4.248-3.13 7.527-4.248c.969-.335 2.087-.633 3.316-.931 1.193-.261 2.46-.485 3.764-.671a66.408 66.408 0 0 1 4.024-.447c1.379-.075 2.758-.15 4.099-.15zM147.93 35.587h2.075L124.37 10.51 99.216 35.587h2.038a7213.253 7213.253 0 0 1 23.153-23.065"/><path fill="#ff3d3d" d="M123.15 29.066v6.52h1.416v-8.57H98.595v1.38h23.251c-.484.484-.932.894-1.341 1.229-.41.335-.895.67-1.454 1.043-1.117.708-2.384 1.342-3.875 1.9a33.705 33.705 0 0 1-4.844 1.416c-1.751.41-3.614.708-5.552.932-1.975.224-3.987.298-5.999.298-2.236 0-4.434-.112-6.52-.372a46.069 46.069 0 0 1-5.963-1.044 29.907 29.907 0 0 1-5.067-1.714c-1.565-.67-2.87-1.416-3.913-2.273-1.267-.969-2.235-2.012-2.869-3.13a6.602 6.602 0 0 1-.969-3.465c0-1.714.634-3.316 1.9-4.807 1.267-1.49 3.019-2.757 5.254-3.838s4.92-1.937 8.05-2.534c3.092-.596 6.483-.894 10.134-.894 2.05 0 4.099.112 6.111.335 2.012.224 6.52 1.118 6.52 1.118l.298-1.46s-3.119-.592-4.694-.775c-2.733-.318-5.329-.56-8.235-.56-2.497 0-4.919.15-7.303.448a45.91 45.91 0 0 0-6.596 1.304c-1.825.522-3.39 1.08-4.732 1.677a21.934 21.934 0 0 0-3.652 2.161c-2.98 2.273-4.47 4.881-4.47 7.825 0 2.87 1.452 5.44 4.433 7.713 1.118.895 2.497 1.677 4.1 2.348 1.601.708 3.353 1.304 5.29 1.788 1.9.485 3.95.857 6.148 1.118 2.162.261 4.435.373 6.745.373 2.757 0 5.366-.15 7.862-.522 2.46-.335 4.77-.82 6.856-1.49 2.087-.634 3.987-1.416 5.627-2.348 1.64-.894 2.98-1.937 4.024-3.13z"/></svg>