<svg xmlns="http://www.w3.org/2000/svg" viewBox="0 0 390.5 132.7"><path d="M97.5 43.59c.548.979.835 2.05.86 3.215.025 1.165-.226 2.52-.752 4.067-1.25 3.68-3.642 6.714-7.174 9.102-3.533 2.388-7.315 3.582-11.35 3.582-1.86 0-3.62-.289-5.284-.866-1.663-.578-3.03-1.277-4.1-2.1l-1.992 2.144H65.36l4.437-14.27h2.378c-.109 1.762-.077 3.352.097 4.77a11.27 11.27 0 0 0 1.247 3.979 7.165 7.165 0 0 0 2.629 2.76c1.127.685 2.59 1.028 4.392 1.028 1.35 0 2.59-.176 3.718-.529 1.128-.352 2.115-.851 2.962-1.497a9.913 9.913 0 0 0 2.167-2.276c.599-.87 1.092-1.874 1.477-3.01.566-1.664.624-3.215.173-4.654s-1.48-2.53-3.088-3.274a149.004 149.004 0 0 0-3.8-1.688c-1.435-.616-2.656-1.199-3.663-1.747-1.99-1.057-3.345-2.442-4.065-4.155-.72-1.713-.61-3.949.328-6.709.539-1.585 1.363-3.063 2.475-4.434 1.111-1.37 2.447-2.594 4.007-3.67a19.136 19.136 0 0 1 4.836-2.393c1.743-.577 3.456-.866 5.14-.866 1.917 0 3.535.294 4.853.88 1.318.588 2.47 1.273 3.455 2.056l1.883-1.997h2.35l-4.466 13.83h-2.378c.108-1.585.139-3.103.093-4.551-.046-1.448-.3-2.76-.762-3.934a5.861 5.861 0 0 0-2.16-2.716c-.984-.675-2.356-1.013-4.118-1.013-1.86 0-3.648.597-5.366 1.79-1.718 1.195-2.87 2.653-3.454 4.376-.612 1.8-.698 3.293-.26 4.478.44 1.184 1.333 2.158 2.678 2.92a31.015 31.015 0 0 0 3.609 1.777c1.21.5 2.365 1.033 3.464 1.6a19.333 19.333 0 0 1 2.803 1.732c.867.646 1.555 1.4 2.065 2.26zm18.83 17.85a62.38 62.38 0 0 1-4.066 1.336c-1.258.362-2.71.543-4.354.543-2.427 0-3.927-.612-4.5-1.835-.573-1.223-.48-2.95.277-5.182l6.667-19.61h-5.226l.958-2.819h5.344l3.063-9.014h5.344l-3.063 9.014h8.309l-.958 2.82h-8.25l-5.499 16.18c-.413 1.213-.714 2.226-.902 3.038-.188.812-.218 1.522-.09 2.13.12.567.442.998.97 1.291.526.294 1.317.44 2.375.44.49 0 1.224-.043 2.203-.132.98-.088 1.688-.2 2.126-.337zm33.69.734-9.645.646-.301-.411 1.248-3.67h-.176a80.677 80.677 0 0 1-2.12 1.57 17.745 17.745 0 0 1-2.54 1.513c-1.061.528-2.05.93-2.964 1.204-.915.274-2.126.411-3.633.411-2.564 0-4.232-.837-5.004-2.51-.772-1.674-.616-4.106.468-7.296l4.71-13.86c.24-.705.308-1.297.207-1.776a2.294 2.294 0 0 0-.735-1.248c-.273-.235-.655-.406-1.147-.514a11.004 11.004 0 0 0-1.598-.22l.648-1.909 9.9-.705.301.411-6.836 20.11c-.712 2.094-.778 3.67-.197 4.727.58 1.057 1.526 1.586 2.838 1.586a9.193 9.193 0 0 0 3.047-.499c.954-.332 1.793-.724 2.513-1.174a16.237 16.237 0 0 0 1.838-1.307c.557-.46 1.01-.885 1.359-1.277l5.579-16.41c.219-.646.276-1.218.172-1.718a2.398 2.398 0 0 0-.712-1.277c-.271-.235-.746-.377-1.425-.425a89.79 89.79 0 0 0-2.289-.133l.648-1.909 10.75-.704.301.41-7.814 22.99c-.226.666-.282 1.234-.168 1.704.114.47.36.871.737 1.204.279.215.651.357 1.118.426.466.068.989.112 1.569.132zm35.32 0-10.32.646-.301-.411.92-2.701-.215-.059a19.127 19.127 0 0 1-4.722 2.79c-1.743.723-3.408 1.085-4.993 1.085-1.644 0-3.11-.367-4.397-1.1a7.363 7.363 0 0 1-2.956-3.099c-.695-1.35-1.058-2.975-1.088-4.874-.03-1.899.344-3.993 1.123-6.283.71-2.094 1.748-4.08 3.11-5.96a25.548 25.548 0 0 1 4.672-4.933 20.861 20.861 0 0 1 5.457-3.142c1.998-.783 3.898-1.174 5.699-1.174 1.35 0 2.619.171 3.804.514 1.185.343 2.158.778 2.918 1.307l3.422-10.07c.28-.822.398-1.571.353-2.246-.045-.675-.252-1.189-.621-1.541-.422-.372-1.07-.641-1.943-.807a25.705 25.705 0 0 0-2.885-.367l.618-1.82 12.06-.676.292.44-13.27 39.05c-.233.686-.298 1.268-.197 1.748.1.48.35.885.746 1.219.29.235.779.381 1.464.44.685.059 1.318.098 1.897.117zm-8.873-5.08 5.757-16.94a5.835 5.835 0 0 0-.205-1.644 4.654 4.654 0 0 0-.771-1.615c-.402-.49-.93-.895-1.583-1.219-.654-.323-1.49-.484-2.508-.484-1.174 0-2.36.303-3.554.91-1.195.607-2.367 1.478-3.517 2.613-1.096 1.096-2.142 2.49-3.14 4.184-.996 1.693-1.843 3.567-2.542 5.623-.558 1.644-.908 3.137-1.051 4.478-.143 1.34-.039 2.589.313 3.744.312 1.096.888 1.977 1.73 2.643.84.665 1.996.998 3.464.998 1.566 0 2.979-.342 4.239-1.028a20.53 20.53 0 0 0 3.367-2.261zm25.58 5.608h-14.01l.659-1.938c.463-.04.942-.078 1.435-.117.493-.04.935-.118 1.327-.235a3.334 3.334 0 0 0 1.533-.925c.414-.44.74-1.013.98-1.718l6.077-17.88c.213-.627.265-1.2.157-1.718a2.372 2.372 0 0 0-.745-1.307c-.292-.235-.762-.436-1.41-.602a10.185 10.185 0 0 0-1.832-.308l.648-1.91 10.44-.645.272.41-8.023 23.61c-.234.686-.295 1.254-.184 1.704.112.45.415.783.91.998.371.176.744.318 1.119.426.374.107.809.18 1.305.22zm10.14-40.72c-.38 1.116-1.077 2.09-2.094 2.921-1.017.832-2.063 1.248-3.14 1.248-.998 0-1.73-.396-2.195-1.189-.465-.793-.524-1.698-.178-2.716.366-1.077 1.052-2.016 2.059-2.819 1.007-.802 2.009-1.204 3.008-1.204 1.116 0 1.903.377 2.361 1.13.458.754.518 1.63.179 2.628zm26.65 25.96c-.691 2.036-1.694 4.037-3.009 6.004-1.315 1.967-2.802 3.636-4.462 5.006-1.883 1.566-3.845 2.731-5.885 3.494a18.06 18.06 0 0 1-6.379 1.145c-1.84 0-3.474-.347-4.902-1.042a8.16 8.16 0 0 1-3.4-3.039c-.827-1.311-1.296-2.912-1.408-4.801-.112-1.889.232-4.008 1.03-6.357 1.537-4.522 4.11-8.221 7.721-11.1 3.611-2.877 7.55-4.316 11.82-4.316 4.052 0 6.93 1.365 8.635 4.096s1.785 6.367.241 10.91zm-6.098.059c.5-1.468.88-3.02 1.141-4.654.262-1.634.292-3.02.09-4.155-.213-1.214-.704-2.187-1.473-2.921-.769-.734-1.887-1.101-3.355-1.101a8.494 8.494 0 0 0-4.24 1.116c-1.32.744-2.532 1.762-3.636 3.054a20.143 20.143 0 0 0-2.708 4.08 34.076 34.076 0 0 0-1.89 4.435c-.638 1.879-1.076 3.616-1.315 5.212-.239 1.595-.238 3.019.002 4.272.24 1.253.742 2.236 1.508 2.95.765.715 1.892 1.073 3.379 1.073 2.447 0 4.787-1.184 7.02-3.553 2.235-2.368 4.06-5.637 5.477-9.807z" style="fill:#0967a8" transform="matrix(1.1546 0 -.1033 .8287 -10.172 -11.87)"/><path d="m297.3 76.9 6.964-8.393h34.82l5 52.14 1.964-.179 19.64-45.36c.542-3.33 3.446-5.48 8.75-6.429h28.39l-5 7.68h-23.39l-29.46 65.71h-22.14l-4.821-58.39-26.43 55.18-13.04 8.57-3.75-5.357 9.643-5.893 28.75-59.29zM13.04 141.9l10.18-6.429 30.54-48.75-12.86 1.071v-5.893l40-6.071-36.79 59.46c13.21.524 26.08.53 35.68-4.056 9.594-4.586 15.82-13.82 20.28-20.89 6.889-10.91 6.052-30.33-15.42-39.87-23.69-4.282-47.06 4.589-69.82 14.82l-2.5-4.821c22.79-9.686 43.9-19.34 78.75-16.07 39.41 8.242 55.2 55.75-.179 75.18-16.24 2.818-42 2.911-65 1.786l-9.107 6.071z" style="fill-rule:evenodd;fill:#0967a8" transform="matrix(.9885 0 0 .9679 -10.172 -11.87)"/><path d="m110.2 141.2 3.929 5.357 9.403-5.714h59.53l6.964-7.679-4.643-4.286-5 5.714h-37.32l13.39-24.11h29.46v-5.357h-27.32l14.46-25.89h-21.96l-27.5 53.75z" style="fill-rule:evenodd;fill:#0967a8" transform="matrix(.9885 0 0 .9679 -10.172 -11.87)"/><path d="m133.2 76.72 4.643-8.214h66.07c7.76 6.146 7.496 11.59 8.75 16.43l-6.25 1.607c-1.106-3.48-1.15-7.667-4.464-9.821zM191.3 141.2l3.929 5.357 9.15-5.714h59.78l6.964-7.679-4.643-4.286-5 5.714h-37.32l13.39-24.11h29.46v-5.357h-27.32l14.46-25.89h-21.96l-27.5 53.75z" style="fill-rule:evenodd;fill:#0967a8" transform="matrix(.9885 0 0 .9679 -10.172 -11.87)"/><path d="m214.3 76.72 4.643-8.214h66.07c7.76 6.146 7.496 11.59 8.75 16.43l-6.25 1.607c-1.106-3.48-1.15-7.667-4.464-9.821z" style="fill-rule:evenodd;fill:#0967a8" transform="matrix(.9885 0 0 .9679 -10.172 -11.87)"/></svg>