<svg xmlns="http://www.w3.org/2000/svg" width="1000" height="141.61" viewBox="0 0 264.58333 37.467647"><path fill="#0972B9" d="M13.011 37.44c-2.09-.144-4.036-.65-5.829-1.515-1.56-.753-2.663-1.574-3.654-2.722-2.103-2.436-3.154-4.856-3.477-8.01-.068-.666-.068-2.115 0-2.971.276-3.42 1.116-6.326 2.81-9.718C4.248 9.724 5.29 8.276 7.356 6.25 9.952 3.704 12.78 1.941 16.308.67c1.39-.5 2.025-.626 3.366-.663 1.45-.04 2.23.078 3.14.472 1.674.727 2.293 1.512 2.615 3.318.13.724.14 1.559.027 1.996-.187.722-.534 1.24-1.648 2.458-1.199 1.31-1.694 2.092-2.222 3.5-.206.55-.446 1.51-.5 1.99-.081.747.098 1.627.476 2.335.248.466.602.93 1.204 1.58 2.004 2.163 3.535 4.936 4.017 7.272.162.787.162 2.134.002 2.94-.435 2.175-1.525 4.227-3.14 5.911a12.029 12.029 0 0 1-7.197 3.589c-.747.092-2.592.13-3.437.072zm80.446-2.254c-.164-.081-.427-.294-.702-.567-1.041-1.038-1.323-1.553-1.324-2.42v-.388l1.677-1.134c2.76-1.866 3.596-2.523 5.041-3.961 1.109-1.103 1.619-1.758 2.222-2.851.608-1.101 1.281-2.911 1.69-4.542.242-.972.588-2.666.55-2.704-.014-.014-1.77-.02-3.9-.013-2.85.01-4.136.032-4.864.085-1.444.105-1.725.057-1.978-.342-.244-.385-.264-.544-.214-1.713l.045-1.06.147-.183c.081-.1.244-.237.36-.304l.214-.12 5.348-.014 5.347-.012.028-.18c.067-.425.125-2.138.125-3.695V7.391l.148-.169a1.11 1.11 0 0 1 .413-.267c.245-.092.37-.1 1.745-.1 1.387 0 1.494.007 1.683.098.342.166.35.205.407 1.98.068 2.102.153 3.982.18 4.01.012.014 2.396.031 5.298.04 3.392.009 5.367.032 5.533.064.163.032.314.1.41.187l.154.137.015.976c.022 1.443-.093 1.97-.474 2.184-.166.092-.266.094-5.255.062l-5.086-.032v.146c0 .203.294 1.327.508 1.94.543 1.555 1.065 2.66 1.976 4.18 1.626 2.712 2.663 4.077 4.025 5.299 1.211 1.086 2.232 1.788 3.638 2.502.519.262 1.004.542 1.08.62.182.193.223.403.148.772-.125.613-.751 1.513-1.78 2.56-.446.454-.559.544-.68.544-.81-.001-3.714-2.77-6.314-6.02-1.653-2.068-2.848-3.794-4.67-6.744-.404-.655-.764-1.215-.8-1.244-.052-.043-.115.077-.32.61-1.043 2.706-2.504 5.276-4.22 7.422-1.608 2.009-3.071 3.341-6.046 5.504-1.033.751-1.067.763-1.527.534zm12.584-.263c-.226-.24-.422-.57-1.124-1.892-1.028-1.935-1.56-2.784-2.114-3.369-.303-.32-.355-.443-.355-.838 0-.25.024-.34.141-.524.184-.29.726-.676 1.487-1.058l.589-.296.45.02c.745.032.673-.037 1.99 1.914 1.78 2.634 2.272 3.567 2.275 4.31.001.22-.023.35-.08.43-.11.155-1.615 1.06-2.097 1.261a2.27 2.27 0 0 1-.696.182c-.306.021-.318.017-.466-.14zm33.755.007c-.984-.167-2.003-.663-2.714-1.323-.18-.166-.23-.245-.23-.364 0-.236.17-.659.454-1.137.337-.565 1.312-2.617 2.045-4.303.892-2.053 1.929-4.984 2.073-5.864.187-1.134-.102-2.23-.776-2.945-.54-.572-1.25-.89-2.35-1.051-.999-.148-3.395-.055-4.875.187l-.36.06-.082.264-.615 1.98c-.657 2.112-2.307 7.878-2.593 9.06a201.65 201.65 0 0 0-.553 2.392c-.189.837-.375 1.594-.415 1.682-.083.186-.346.32-.723.37-.239.03-2.295-.121-2.947-.218-.66-.098-.92-.38-.845-.916.057-.41.148-.725.918-3.189.395-1.262 1.133-3.654 1.642-5.315a2713.3 2713.3 0 0 1 1.235-4.027c.171-.554.311-1.04.311-1.079 0-.045-.03-.062-.084-.046-.047.014-.541.125-1.1.246-1.326.29-1.651.381-2.174.616-.877.393-1.438.544-1.738.467-.451-.116-.683-.488-1.122-1.804-.295-.883-.324-1.006-.327-1.38-.002-.362.013-.437.129-.634.164-.278.235-.312 1.346-.64 1.165-.343 2.004-.536 4.506-1.04l2.07-.416.715-2.15c.727-2.186 1.25-3.598 1.48-3.989.07-.12.218-.311.33-.426.481-.495.957-.615 2.05-.516.886.08 1.357.227 1.644.514.211.211.211.211.192.514-.015.234-.073.418-.255.81-.22.472-1.613 4.523-1.569 4.559.011.009.248-.005.527-.031.898-.084 3.56-.064 4.272.03 2.076.277 3.085.748 4.354 2.032 1.298 1.314 1.883 2.79 1.793 4.524-.12 2.292-.634 4.748-1.568 7.49-.553 1.624-1.009 2.68-2.068 4.795-.635 1.266-.782 1.523-1 1.745-.202.208-.7.537-.768.509a4.828 4.828 0 0 0-.235-.043zm-95.213-.372c-.13-.031-1.305-.557-1.783-.797-.601-.302-1.239-.714-1.295-.837-.075-.164-.007-.51.148-.754.074-.116.328-.385.565-.598.663-.595 1.562-1.512 1.924-1.962.88-1.096 2.04-3.073 2.61-4.45.615-1.484 1.19-3.524 1.406-4.992.096-.648.264-2.216.24-2.24-.008-.01-.222.018-.474.06-1.39.238-2.56.712-3.824 1.552-1.192.792-2.813 2.457-3.381 3.473-.225.401-.302.628-.44 1.284s-.255.86-.613 1.065c-.33.19-.463.224-1.244.315-.359.042-.783.11-.942.151-.577.15-.976-.022-1.137-.491a10.824 10.824 0 0 0-.226-.578c-.271-.638-.788-2.615-1.168-4.47-.107-.518-.411-1.92-.678-3.117a149.817 149.817 0 0 1-.648-3.035l-.165-.861.102-.067c.217-.142 1.236-.599 1.697-.76.613-.216 1.234-.343 1.533-.314.128.012.245.034.26.05.039.038.228.792.452 1.798.107.478.28 1.174.384 1.546.104.372.366 1.35.581 2.175.215.824.407 1.535.427 1.581.028.067.23-.103 1.05-.889 1.073-1.028 1.464-1.362 2.83-2.419 1.098-.848 1.52-1.127 2.316-1.531.821-.417 1.635-.738 2.387-.943.466-.127.588-.179.599-.25.015-.105-.031-.452-.374-2.816l-.249-1.709.129-.186c.37-.535 1.206-.804 2.35-.759.588.024.738.072.967.313.17.179.454.798.544 1.184.094.407.17 1.717.17 2.944v.996l.44.03c1.913.137 3.851.77 5.29 1.73 2.144 1.429 3.45 4.11 3.455 7.094.004 2.164-.534 4.083-1.599 5.705-.788 1.201-2.128 2.753-2.583 2.991-.22.116-.54.13-.807.034-.48-.172-2.08-1.187-2.276-1.445-.446-.587-.423-1.102.069-1.493.562-.448 1.443-1.615 1.918-2.542.484-.945 1.058-2.453 1.244-3.271.178-.781.091-1.918-.196-2.561-.317-.71-1.23-1.386-2.248-1.666-.512-.14-1.36-.243-2.008-.243h-.553v1.075c-.002 3.152-.875 6.608-2.427 9.6-1.212 2.338-2.107 3.681-3.794 5.694-.521.622-.622.686-.955.606zm41.822-.18c-.635-.121-1.82-.467-2.124-.62-.22-.11-.355-.218-.46-.366-.136-.195-.146-.24-.146-.634v-.424l.492-.985c.416-.83.515-1.076.636-1.565.281-1.14.322-1.517.32-2.996 0-1.186-.014-1.426-.108-1.95-.237-1.317-.891-2.78-1.704-3.812-.524-.665-.665-.815-.717-.76-.026.026-.339.613-.696 1.304-.998 1.928-1.666 3.055-2.555 4.308-1.794 2.528-4.025 4.904-5.695 6.064-1.235.858-2.057 1.169-3.45 1.305-1.1.108-2.6-.24-3.675-.854-1.37-.781-2.838-2.438-3.313-3.738-.173-.476-.377-1.462-.425-2.066-.059-.727.092-2.124.33-3.062.209-.822.886-2.34 1.481-3.323.617-1.017.956-1.435 2.08-2.565l1.073-1.08-.213-.732c-.317-1.093-.89-3.423-.97-3.946-.099-.657-.09-1.025.03-1.26.292-.574 1.25-1.234 1.96-1.35.38-.063.839-.06 1.028.006.218.076.333.336.422.95.113.784.316 1.54.819 3.052.251.756.465 1.382.475 1.392.01.01.235-.058.5-.15 1.211-.422 2.344-.579 4.192-.582 1.748-.003 2.422.095 4.246.62.421.122.787.221.812.221.083 0 .28-.528.69-1.851.727-2.354.97-3.25 1.044-3.856.101-.829.263-1.01.906-1.01 1.023 0 2.007.383 2.308.897.125.213.13.243.1.673-.073 1.032-.25 1.738-.882 3.514-.515 1.448-1.034 3.02-1.032 3.125 0 .043.114.155.252.248.821.551 1.444 1.14 2.316 2.187.94 1.128 1.372 1.915 1.775 3.225.476 1.55.627 2.476.667 4.083.022.897.01 1.214-.08 2.03a31.933 31.933 0 0 1-.905 4.832c-.187.694-.313.963-.592 1.264-.28.304-.568.36-1.212.237zm-16.38-4.928a4.18 4.18 0 0 0 1.445-.582c.86-.571 2.534-2.129 3.379-3.143.555-.666 1.225-1.566 2.007-2.693.771-1.112.896-1.317 1.637-2.7.76-1.42 1.057-2.055.986-2.114-.082-.067-.608-.238-1.063-.345-.81-.19-1.513-.26-2.618-.263-1.001-.002-1.092.005-1.58.129-.839.213-1.793.607-1.756.726.185.593.32.975.811 2.283.319.85.718 1.82.887 2.153.311.615.83 1.486.993 1.668.05.054.09.14.09.19 0 .207-1.406 1.395-1.931 1.632-.287.129-.658.132-.874.007-.501-.289-2.046-2.882-3.048-5.118-.155-.345-.301-.634-.325-.642-.177-.06-1.234 1.282-1.623 2.06-.426.849-.74 2.108-.785 3.148-.025.566-.015.706.074 1.063.275 1.098 1.032 2.007 2 2.4.52.212.755.237 1.294.141zm87.791 4.056c-1.171-.166-2.578-.669-3.418-1.223-.43-.283-1.098-.958-1.408-1.422-1.085-1.622-1.37-3.592-.84-5.83.405-1.719.988-3.015 1.503-3.341.418-.265.996-.188 1.866.25.214.107.64.281.948.387.619.212.879.347 1.082.56.149.157.165.233.11.516-.057.301-.19.515-.612.994-.471.535-.851 1.11-1.038 1.57-.116.284-.138.407-.138.773 0 .382.016.466.134.694.306.588 1.112 1.142 2.012 1.384.476.127 1.804.154 2.515.05 1.698-.247 2.967-.696 5.41-1.917a63.588 63.588 0 0 0 4.107-2.253c1.139-.675 1.55-.948 2.682-1.776 1.184-.867 1.36-.978 1.661-1.042.35-.075.546-.034.825.17.38.28 1.75 1.72 1.903 2 .16.296.215.69.132.943-.204.617-1.777 1.818-4.883 3.729-2.262 1.391-4.36 2.511-5.871 3.134-.98.403-2.672.967-3.338 1.112-2.002.437-4.374.675-5.344.538zm23.89-1.278c-1.333-.328-2.412-1.2-2.507-2.025-.06-.518.274-1.368.824-2.095 1.651-2.186 3.22-5.37 4.35-8.826.515-1.579.657-2.236.728-3.366.017-.266.056-.534.086-.596.03-.062.154-.17.275-.242.215-.126.235-.128 1.017-.123 1.255.009 2.109.184 2.421.496.202.202.277.417.315.9.042.53-.087 1.193-.483 2.488-1.058 3.461-2.17 6.44-3.21 8.602a25.51 25.51 0 0 0-.639 1.45c-.708 1.813-1.073 2.547-1.5 3.014-.131.143-.312.295-.403.338-.22.104-.817.097-1.274-.015zm20.64-.196c-.15-.06-.239-.334-.405-1.241-.227-1.24-.527-2.281-1.215-4.22-1.245-3.507-2.62-6.391-4.17-8.746-.898-1.366-1.85-2.523-3.935-4.784-.987-1.07-1.12-1.318-.844-1.573.07-.066.326-.243.568-.393.242-.151.76-.491 1.15-.756l.712-.48.328.023c.483.034.734.168 1.233.654.565.551 1.123 1.187 2.234 2.549.5.611.923 1.117.941 1.125.019.007.07-.276.114-.628.102-.815.192-1.172.42-1.662.258-.56.537-.95 1.014-1.42.924-.912 2.163-1.595 2.894-1.595.626 0 1.227.399 1.378.915.043.144.078.377.078.518 0 .214.023.281.144.42.374.426.636 1.285.635 2.085 0 .645-.074.953-.376 1.57-.193.396-.29.524-.689.92-.545.541-.991.792-1.77.994-.577.15-1.659.214-2.03.12a.926.926 0 0 0-.241-.042c-.008.008.23.428.53.933a54.972 54.972 0 0 1 2.718 5.266c.791 1.797 1.163 2.672 1.429 3.359.159.412.457 1.151.664 1.643.507 1.211.967 2.436.967 2.576 0 .304-.227.684-.523.877-.194.125-1.48.578-2.203.775-.85.231-1.512.314-1.749.218zm.272-18.286c.33-.13.72-.384.842-.549a.833.833 0 0 0 .113-.37c.036-.448-.295-.753-.82-.753-.556 0-1.08.312-1.315.783-.145.29-.156.465-.046.698.169.355.628.427 1.226.191zm14.81 17.653a85.985 85.985 0 0 1-7.065-.575c-.806-.103-1.016-.178-1.257-.452-.292-.333-.31-.453-.294-1.895.015-1.254.02-1.31.129-1.533.062-.127.191-.29.286-.362.166-.127.196-.132.732-.128.381.003 1.067.074 2.154.225 1.607.224 2.574.3 5.436.425 1.392.062 4.59.06 5.567-.002 2.58-.164 4.855-.544 6.852-1.144 2.33-.7 2.713-.83 3.49-1.193.823-.384 1.191-.452 1.414-.26.114.098.135.174.22.785.05.372.125.872.166 1.112.092.546.138 1.518.088 1.836l-.039.241-.484.242c-1.454.726-4.848 1.667-7.827 2.17-2.817.477-5.941.642-9.568.508zm22.17-6.518c-.287-.122-.606-.85-.813-1.853-.126-.614-.205-1.567-.149-1.793.044-.174.373-.525.638-.68.387-.227.81-.353 1.932-.574 3.196-.631 6.105-.994 9.733-1.213 4.36-.263 7.714-.175 10.244.269.868.152 2.957.675 3.101.776.263.184.382.824.236 1.265-.033.102-.202.417-.374.7-.412.68-.653 1.192-.81 1.724-.166.563-.214.654-.397.761l-.153.089-.773-.264c-.91-.31-1.46-.431-2.448-.538a87.162 87.162 0 0 1-1.764-.216c-1.579-.21-1.804-.236-2.561-.287-3.107-.21-6.599-.024-9.954.53-1.954.322-4.284.87-4.856 1.14-.384.183-.66.237-.832.164zm-78.104-7.653c-.225-.142-1.097-.713-1.94-1.268a333.134 333.134 0 0 0-4.642-3.004c-.345-.219-.718-.423-.827-.454-.319-.089-.384-.197-.344-.571.019-.174.067-.379.106-.455.04-.077.305-.382.589-.677.284-.295.697-.759.918-1.03.22-.273.472-.539.56-.593.37-.23.89-.055 2.152.724.332.205.875.532 1.208.726a55.54 55.54 0 0 1 4.228 2.778c.372.27.793.553.936.63.143.077.282.189.309.248.062.136-.012.255-.446.716a24.141 24.141 0 0 0-1.514 1.795c-.414.551-.57.693-.756.693-.073 0-.307-.112-.537-.258zm51.097.118c-.214-.097-.357-.27-.448-.536-.083-.245-.246-1.566-.28-2.276-.028-.569-.023-.622.077-.8.2-.356.623-.568 1.913-.961 1.469-.448 3.039-.79 5.073-1.108 2-.313 4.794-.446 7.62-.365 2.997.086 4.2.233 4.76.578.25.154.324.49.29 1.33-.03.778-.142 1.3-.39 1.83-.293.629-.501.708-1.482.562-.943-.14-1.746-.191-3.027-.191-2.57 0-4.465.199-8.544.898-2.875.492-4.214.77-4.972 1.032-.345.12-.342.12-.59.007z"/></svg>