<svg xmlns="http://www.w3.org/2000/svg" id="_레이어_2" viewBox="0 0 1539.13 195.3"><defs><style>.cls-1{fill:#e50011}.cls-2{fill:#9e9f9f}</style></defs><g id="Layer_1"><path d="M26.89 164.41c5.81 2.69 11.74 5.02 18.06 6.31 7.65 1.55 15.31 2.07 23.08 1.11 12.22-1.51 23.45-5.63 33.41-12.82 16.06-11.6 26.08-27.18 30.08-46.55 1.33-6.44 1.95-12.95 1.15-19.54-1.96-16.13-13.95-29.4-29.47-32.49-2.2-.44-4.43-.67-6.69-.67-15.82.03-31.64.02-47.45 0-4.29 0-4.28-.02-4.28-4.25V18.92c0-.83-.01-1.66.04-2.49.06-1.05.53-1.8 1.5-2.39C57.03 7.52 68.56 3.16 80.94 1.17c8.74-1.4 17.51-1.56 26.35-.42 11.45 1.48 22.21 4.91 32.39 10.24 6.51 3.41 12.5 7.59 18.01 12.45 8.29 7.32 15.38 15.62 20.8 25.28 5.54 9.85 9.46 20.29 11.44 31.42 1.85 10.42 2.24 20.92.59 31.4-2.11 13.41-6.46 26.04-13.6 37.67-6.86 11.18-15.54 20.7-26.23 28.34-11.39 8.15-23.96 13.55-37.77 16.11-17.29 3.21-34.15 1.69-50.55-4.55-12.44-4.73-23.41-11.84-32.9-21.17-1.01-.99-1.97-2.01-2.96-3.02l.4-.52Z" class="cls-1"/><path d="M983.49 131.36c-1.11.02-1.79.37-2.46.89-7.03 5.44-14.98 7.76-23.88 7.28-6.97-.38-13.28-2.47-18.9-6.53-9.05-6.53-14.34-15.34-15.71-26.43-1.12-9.04.59-17.51 5.42-25.27 12.78-20.54 39.48-22.95 55.86-8.54 7.97 7.01 12.43 15.97 12.76 26.62.43 13.76.51 27.54-.06 41.3-.25 6.15-2.26 11.87-5.56 17.28-2.78 4.57-6.43 8.24-10.53 11.25-5.67 4.15-12.32 6.44-19.49 6.78-.89.04-1.46-.23-1.46-1.22 0-3.73.02-7.47-.01-11.2 0-1.26.82-1.22 1.68-1.23 3.76-.09 7.12-1.35 10.3-3.28 6.4-3.88 10.05-9.6 11.57-16.82.76-3.61.36-7.22.47-10.88Zm-47.99-28.69c-.05 7.22 3.19 12.95 8.13 17.59 5.15 4.85 11.79 6.14 18.71 6.08 11.75-2.36 21.51-11.64 21.07-25.8-.42-13.68-12.17-24.3-25.19-23.38-14.14 1-23.2 12.49-22.73 25.5ZM1184.34 130.92v42c0 .58-.02 1.16 0 1.74.04.89-.24 1.35-1.27 1.34-3.58-.03-7.16 0-10.74.04-.92 0-1.41-.35-1.36-1.32.03-.5 0-1 0-1.49 0-22.9-.04-45.8 0-68.7 0-6.42.64-12.75 3.42-18.69 5.22-11.15 13.68-18.53 25.76-21.24 21.47-4.81 40.43 9.14 44.65 28.95.92 4.33 1.26 8.78.45 13.11-.71 3.76-1.48 7.59-3.36 11.05-1.56 2.87-3.05 5.75-5.13 8.33-3.56 4.39-8.01 7.48-13.03 9.97-10.48 5.22-20.94 4.56-31.37.08-2.72-1.17-5.13-2.96-8.02-5.17Zm48.04-29.49c-.18-13.43-11.04-24.36-23.9-24.36-13.38 0-24.18 11.12-24.14 24.92.04 13.06 10.99 24.13 23.85 24.2 13.61.07 24.14-11.33 24.19-24.76ZM428.67 131.28c-.43.88-.24 1.72-.24 2.52-.02 12.94-.02 25.88-.02 38.81 0 .66-.04 1.33 0 1.99.05.92-.3 1.36-1.29 1.36-3.58-.01-7.16.01-10.73.04-.71 0-1.11-.26-1.11-1v-1.49c0-23.89 0-47.77-.02-71.66 0-4.41.49-8.72 2.02-12.91 1.66-4.56 3.97-8.74 7.16-12.4 7.31-8.41 16.61-12.75 27.75-12.86 10.99-.11 20.24 4.01 27.71 12.08 1.93 2.08 3.47 4.43 4.98 6.83 1.83 2.89 2.68 6.15 3.57 9.35 1.8 6.52 2 13.17.06 19.69-4.59 15.42-14.82 24.81-30.77 27.63-4.51.8-9.11.42-13.64-.55-5.2-1.12-9.74-3.55-13.98-6.64-.39-.29-.69-.74-1.44-.78Zm47.87-29.37c.04-13.58-10.96-24.96-23.78-24.8-13.64.17-24.13 9.82-24.28 24.56-.14 13.33 10.98 24.58 24.07 24.52 13.36-.07 23.79-11.04 23.99-24.28ZM1280.18 70.58c2.93-2.15 6-3.96 9.44-5.05 11.62-3.68 22.42-2.05 32.02 5.49 3.14 2.46 5.67 5.65 7.83 9.14 3.87 6.26 5.51 12.98 5.44 20.29-.12 12.03-.05 24.06-.05 36.09 0 .58-.03 1.16 0 1.74.04.82-.31 1.24-1.15 1.24h-10.74c-.83 0-1.22-.33-1.2-1.18.02-.83-.03-1.66-.03-2.49-.01-11.86-.02-23.73-.04-35.59 0-4.02-.55-7.93-2.46-11.56-4.49-8.55-13.94-13.33-23.17-11.03-3.94.98-7.33 2.99-10.21 5.86-3.81 3.8-5.73 8.45-6.04 13.73-.4 6.88-.12 13.77-.17 20.65-.04 6.39 0 12.78 0 19.17 0 2.39 0 2.43-2.26 2.46-3 .04-5.99.04-8.99 0-1.93-.02-1.96-.06-1.98-1.93-.03-3.4-.03-6.8-.03-10.2 0-32.19.01-64.38.03-96.57 0-3.51.03-3.51 3.62-3.51 2.5 0 5-.03 7.49 0 2 .02 2.04.04 2.07 2.11.04 2.99.04 5.97.04 8.96 0 10.29-.02 20.57-.03 30.86 0 .4-.05.83.58 1.33ZM511.02 139.74c-.52-.73-.36-1.5-.36-2.24V30.97c0-3.64.03-3.65 3.7-3.66 2.58 0 5.16.06 7.74-.04 1.35-.05 1.79.46 1.68 1.71-.06.66-.01 1.33-.01 1.99.01 12.2.02 24.39.05 36.59 0 .94-.31 2 .47 2.79.41.03.7-.11.97-.31 17.07-12.95 45.46-6.08 52.55 19.15.98 3.47 1.23 7.03 1.24 10.59.03 12.53 0 25.06-.01 37.58 0 2.08-.02 2.13-1.99 2.16-3.16.05-6.33.06-9.49.02-1.74-.02-1.8-.08-1.81-1.85-.02-6.72-.01-13.44-.01-20.16 0-6.55.13-13.11-.04-19.66-.24-9.57-6.78-17.8-15.97-20.16-9.94-2.55-20.41 2.98-24.29 12.72-1.31 3.3-1.68 6.73-1.68 10.24.02 11.86.03 23.73.02 35.59 0 3.45.58 3.17-3.15 3.27-3.15.08-6.31-.17-9.61.19ZM1150.37 118.73v18.66c0 2.01-.03 2.07-2.05 2.11-3.16.07-6.32.07-9.49.05-1.69-.01-1.75-.1-1.79-1.89-.04-1.66-.03-3.32-.06-4.98-.01-.58.02-1.23-.64-1.49-.57-.23-.88.29-1.26.59-11.61 9.12-24.33 10.07-37.62 4.54-6.46-2.69-11.45-7.45-15.36-13.29-2.22-3.31-4.06-6.81-4.99-10.66-3.45-14.23-.78-27.08 9.67-37.66 10.3-10.43 22.98-13.55 36.94-9.41 13.6 4.03 21.93 13.63 25.48 27.23.82 3.16 1.25 6.45 1.2 9.78-.08 5.47-.02 10.95-.02 16.42Zm-13.33-17.16c.09-3.07-.56-5.97-1.66-8.78-4.5-11.48-16.11-17.94-28.08-14.95-9.14 2.28-17.56 10.45-18.27 22.4-.24 4.01.26 7.94 2.09 11.71 1.24 2.54 2.65 4.84 4.52 6.96 2.43 2.76 5.55 4.31 8.87 5.62 6.54 2.58 13.12 2.41 19.21-.89 8.64-4.68 12.93-12.3 13.32-22.07ZM1498.32 139.56h-20.98c-2.18 0-2.22-.02-2.25-2.17-.04-3.07-.03-6.14 0-9.21.02-1.96.06-1.97 2.14-1.97h38.22c1 0 2-.02 2.98-.18 4.63-.74 7.63-4.63 7.36-9.45-.25-4.3-3.89-7.96-8.35-8.05-6.91-.13-13.82-.06-20.73-.06-2.25 0-4.49-.07-6.73-.36-10.6-1.41-18.6-10.45-18.85-21.14-.14-5.97 1.39-11.34 5.39-15.82 4.4-4.93 9.96-7.53 16.65-7.54 7.58-.01 15.15-.01 22.73-.01 5.66 0 11.32-.01 16.99 0 2.25 0 2.26.03 2.27 2.13.01 2.99.01 5.97 0 8.96-.02 2.35-.03 2.35-2.31 2.35-5.99 0-11.99 0-17.98-.01-6.41 0-12.82-.01-19.23 0-1.16 0-2.34-.02-3.49.14-7.39 1.02-9.74 9.08-5.86 14.32 2.03 2.74 4.92 3.47 8.07 3.49 7.41.04 14.82.02 22.23-.02 2.26-.01 4.5.14 6.66.82 10.65 3.33 16.99 13.43 15.74 24.33-.98 8.47-7.34 16.88-16.96 19.02-1.73.39-3.46.44-5.21.44-6.16.02-12.32 0-18.48 0ZM339.19 87.93c.18 6.46-.22 13.6.31 20.73.14 1.89.95 3.4 1.68 5 2.31 5.04 6.05 8.61 11.15 10.88 5.84 2.6 11.57 2.09 17.1-.66 5.53-2.76 9.14-7.14 10.76-13.26.82-3.09 1.1-6.15 1.1-9.28.02-11.78.02-23.56.04-35.35 0-2.46-.25-2.39 2.47-2.4 2.91 0 5.83-.02 8.74.01 1.83.02 1.88.05 1.88 1.75 0 13.69 0 27.38-.01 41.07 0 2.38-.59 4.64-1.36 6.88-.42 1.22-.52 2.54-.79 3.82-.39 1.81-1.68 3.16-2.47 4.78-1.25 2.59-2.98 4.95-4.91 7.03-1.7 1.83-3.85 3.27-5.91 4.72-3.07 2.15-6.42 3.8-10.06 4.79-2.02.55-2.04.56-2.04 2.63v31.86c0 3.04 0 3.02-3.02 3.02-2.83 0-5.66.04-8.49.06-1.79 0-1.84 0-1.85-1.77-.03-5.14-.01-10.29-.01-15.43 0-5.73.01-11.45.01-17.18 0-2.44-.03-2.52-2.46-3.23-6.1-1.79-11.37-4.93-15.68-9.62-5.75-6.26-8.92-13.63-9.32-22.13-.15-3.23-.12-6.47-.12-9.7 0-10.29.01-20.58.02-30.87 0-2.54-.25-2.53 2.62-2.51 2.5.01 5-.03 7.49 0 3.47.04 3.13-.35 3.13 3.01.01 6.89 0 13.77 0 21.33ZM636.83 139.58c-10.46.03-19.64-3.81-26.75-11.68-10.23-11.33-12.87-24.57-8.02-39 4.16-12.35 12.87-20.52 25.37-23.97 11.13-3.07 21.81-1.18 31.31 5.7 7.96 5.76 12.84 13.57 14.85 23.13.88 4.22 1.15 8.53.53 12.82-.24 1.65-.8 3.26-1.23 4.89-1.02 3.87-2.38 7.57-4.55 11-1.31 2.08-3.04 3.69-4.67 5.43a37.737 37.737 0 0 1-11.36 8.26c-4.83 2.3-9.88 3.51-15.47 3.42Zm.17-13.32c1.27-.54 2.61.17 4.03-.21 1.34-.36 2.66-.78 3.94-1.26 5.81-2.14 10.2-6.02 13.16-11.4 2.71-4.93 3.52-10.25 2.66-15.81-1.47-9.43-9.16-18.99-21.23-20.37-7.77-.89-14.33 1.95-19.78 7.49-6.24 6.33-9.64 19.01-3.34 29.34 4.67 7.64 11.53 11.69 20.56 12.22ZM733.01 139.57c-17.85.38-32.7-12.06-36.49-27.84-3.5-14.61-.17-27.59 10.73-38.07 8.38-8.06 18.69-11.32 30.3-9.55 16.04 2.45 26.04 11.93 30.78 27.13 1.78 5.71 1.98 11.65.73 17.49-1.74 8.14-5.43 15.26-11.74 20.96-3.86 3.48-8.13 6.12-13 7.87-3.84 1.38-7.77 2.15-11.31 2.01Zm-.37-62.49c-3.98 0-7.72.92-11.23 2.83-3.27 1.78-5.97 4.21-8.17 7.18-2.26 3.05-3.84 6.46-4.36 10.2-.5 3.6-.84 7.27.42 10.84.14.39.28.78.36 1.19.92 4.75 3.98 8.19 7.36 11.26 2.98 2.71 6.72 4.27 10.7 5.12 6.19 1.31 12.16.4 17.34-3.07 9.42-6.3 13.5-17.17 10.54-27.75-2.9-10.38-12.46-17.78-22.96-17.79ZM274.49 45.32v15.93c0 2.12.08 2.29 2.2 2.31 4.91.05 9.82.02 14.74.02 3.91 0 7.83-.01 11.74 0 1.95.01 1.99.04 2.02 1.89.05 3.15.06 6.31.05 9.46 0 2.02-.09 2.09-2.12 2.09-8.41 0-16.82 0-25.23-.01-3.83 0-3.38-.17-3.38 3.31 0 5.72.09 11.45-.02 17.17-.06 3.58.31 7.11.62 10.66.16 1.81 1.21 3.35 2.1 4.88 3.8 6.54 9.19 11.05 16.74 12.7 1.22.27 2.46.41 3.7.56.92.11 1.24.57 1.23 1.49-.03 3.57-.02 7.13 0 10.7 0 .94-.33 1.32-1.33 1.27-8.55-.36-16.16-3.2-22.71-8.7-6.47-5.43-10.64-12.31-12.63-20.49-.69-2.83-.87-5.72-.86-8.63.02-7.47.03-14.93.05-22.4 0-2.5.02-2.52-2.44-2.53-8.66-.02-17.32-.02-25.97-.03-2.33 0-2.35 0-2.38-2.32-.03-2.82-.03-5.64-.01-8.46.02-2.61.03-2.62 2.55-2.62h17.73c2.75 0 5.5.02 8.24-.02 2.01-.03 2.29-.37 2.29-2.33l-.03-30.86c0-.5.05-1 0-1.49-.12-1.18.38-1.6 1.57-1.58 3.25.06 6.49 0 9.74.02 1.75.01 1.78.05 1.79 1.81.02 5.39 0 10.79 0 16.18Z" class="cls-2"/><path d="M107.97 134.21c-4.34 5.34-8.76 10.02-14.13 13.73-14.33 9.9-30.07 12.77-47.07 9.36-1.74-.35-1.95-.56-2-2.28-.05-1.91-.01-3.82-.01-5.72 0-24.47-.02-48.94-.03-73.42 0-.5.01-1 .03-1.49.02-.8.43-1.21 1.24-1.22.92 0 1.83-.02 2.75-.02H66.2c.4 1.09-.25 1.72-.77 2.3-2.39 2.69-3.96 5.91-5.12 9.2-1.11 3.15-1.43 6.58-1.67 9.96-.69 9.73 1.75 18.64 7.59 26.45 5.08 6.81 11.94 11.25 20.17 13.42 5.88 1.55 11.84 1.49 17.78.14 1.09-.25 2.18-.82 3.78-.41Z" class="cls-1"/><path d="M859.05 117.21c0 6.8.01 13.61 0 20.41 0 1.8-.04 1.87-1.74 1.9-3.25.05-6.5-.02-9.74.04-1.29.02-1.77-.4-1.73-1.73.08-2.57-.01-5.14-.02-7.72v-28.63c0-4.07-.43-8.01-2.11-11.85-4.87-11.14-19.77-16.97-31.09-8.39-5.9 4.47-8.81 10.48-8.83 17.84-.04 11.87 0 23.73-.04 35.6 0 1.54.72 3.46-.41 4.52-1.01.95-2.87.32-4.35.34-2.25.04-4.5-.06-6.74 0-1.34.04-1.67-.54-1.66-1.77.06-3.9.02-7.8.02-11.7 0-9.13.04-18.26 0-27.38-.07-14.5 7.79-24.59 16.17-29.79 7.56-4.69 15.69-6.11 24.61-4.41 10.83 2.06 18.38 8.14 23.53 17.45 2.74 4.95 4.13 10.4 4.17 16.12.04 6.39 0 12.78 0 19.17h-.01Z" class="cls-2"/><path d="M31.41 150.8c-.76.27-1.14-.1-1.55-.36-14.67-9.24-24.27-22.14-28.33-39.02C-.3 103.83-.25 96.14.47 88.44c.41-4.37 1.06-8.71 2.05-13 .51-2.21.45-2.26 2.65-2.27 8.07-.02 16.14-.03 24.21-.02 2.17 0 2.19.04 2.2 2.27.02 8.95.02 17.91.03 26.86 0 15.25.02 30.51.02 45.76 0 .9.16 1.82-.19 2.77Z" class="cls-1"/><path d="M1435.55 139.47c-3.75 0-7.5.16-11.24-.03-9.8-.49-17.89-4.68-24.57-11.72-4.8-5.05-8-11.05-9.29-17.81-4.77-24.91 12.26-43.71 32.29-46.06 1.81-.21 3.66-.24 5.49-.25 6.58-.03 13.16-.02 19.74 0 2.26 0 2.25.03 2.25 2.35 0 2.9.02 5.81.03 8.71 0 2.34 0 2.36-2.29 2.37-5.83 0-11.66-.02-17.49-.01-3.16 0-6.33 0-9.42.86-10.86 3.05-18.27 12.81-18.09 24.05.02 1.59-.32 3.14.26 4.86.91 2.65 1.81 5.29 3.31 7.62 4.88 7.6 11.81 11.74 20.98 11.8 6.33.04 12.66 0 18.99 0 .75 0 1.5.05 2.25.02 1.19-.04 1.55.51 1.53 1.67-.07 3.32-.12 6.64-.02 9.96.04 1.38-.49 1.69-1.72 1.68-4.33-.04-8.66-.02-12.99-.02v-.06Z" class="cls-2"/><path d="M94.91 122.07c-12.24.12-23.4-11.62-23.26-24.41.15-13.57 10.95-24.62 24.06-24.49 13.4.13 24.01 11 24 24.76 0 11.87-9.38 24.56-24.81 24.14Z" class="cls-1"/><path d="M1017.5 118.42c0-5.72-.14-11.45.03-17.17.37-12 5-22.04 14.45-29.65 6.14-4.94 13.23-7.55 21.12-7.91 1.79-.08 1.84-.04 1.85 1.71.02 3.32-.06 6.64 0 9.95.02 1.29-.47 1.65-1.72 1.77-8.65.87-14.96 5.22-19.48 12.63-2.01 3.3-2.78 6.71-2.82 10.39-.08 7.05-.05 14.1-.07 21.15-.02 5.31-.03 10.62-.07 15.93-.02 2.24-.05 2.27-2.38 2.3-3 .04-5.99.05-8.99.02-1.89-.02-1.93-.06-1.94-1.97-.02-6.39 0-12.77 0-19.16h.01ZM1355.71 101.51V66.69c0-.58.03-1.16 0-1.74-.03-.81.3-1.22 1.16-1.22 3.58.01 7.15.01 10.73 0 .84 0 1.22.38 1.19 1.2-.01.5 0 .99 0 1.49 0 23.38 0 46.76-.01 70.14 0 2.89.63 3-2.92 2.99-2.75 0-5.49.02-8.24 0-1.85-.02-1.89-.05-1.89-1.98-.01-12.02 0-24.04 0-36.06h-.04Z" class="cls-2"/><path d="M7.96 59.55c.66-6.52 16.45-29.35 23.15-33.51.66.36.46 1.01.46 1.55.01 9.95.02 19.9.01 29.85 0 2.16-.04 2.26-1.97 2.28-6.9.05-13.81.04-20.71.03-.32 0-.63-.13-.94-.19ZM26.49 164.93c-.13-.15-.38-.38-.35-.43.19-.29.48-.21.75-.09l-.4.52Z" class="cls-1"/></g></svg>