<svg xmlns="http://www.w3.org/2000/svg" xml:space="preserve" width="150px" height="70px" x="0px" y="0px" style="enable-background:new 0 0 150 70" viewBox="0 0 150 70"><linearGradient id="a" x1="143.6959" x2="230.495" y1="-54.0029" y2="-82.312" gradientTransform="translate(-108.888 93.684)" gradientUnits="userSpaceOnUse"><stop offset="0" style="stop-color:#fdd600"/><stop offset="0.5276" style="stop-color:#ef7600"/><stop offset="1" style="stop-color:#d92922"/></linearGradient><path fill="url(#a)" d="M71.2 42.7C65.8 46.3 65.4 54 65.4 54c2.2-7.5 20.9-15.8 28.8-15 6.2.6 15-2.3 15-2.3s-.9 2.9-8.1 3.4c-19.1-.3-20.7 7.7-20.7 7.7 2.9-5.5 16.7-6.4 26.2-7.5 9.5-1.1 17.1-8.3 22.4-14.7 5.3-6.4 21-.2 21-.2-12.7-7.6-19.3-3.9-19.3-3.9 2.7-1.1 8.8.4 8.8.4-5.9-1.1-12.7.5-17.9 6.5-5.1 6-13.2 4.3-15.2-1.5s12.5-5.6 14.1-5.5c1.5.1 6.9.9 7-1.1-1.4.8-3.8-.2-3.8-.2-19.8-4.8-31.4 6.8-31.4 6.8 10-7.7 22.2-6.6 22.2-6.6s-13.7 1.6-18.2 5.4c-4.5 3.8-16.2 10.6-20.7 5.6s2.6-7.4 6.9-7.4c4.4 0 7.5-1.3 9.5-2.2-1.7 1.9-7.4 3.1-7.4 3.1 8.7.3 16.4-7.7 17.4-11.8 1-4.1 6.1-5.6 6.1-5.6-2.6-.3-5.4 1.7-6.9 4.7-1.5 3.1-7.5 5.4-7.5 5.4s4.7-2.4 7.9-8.3 16.2-4 16.2-4c-16.3-3.9-20 4.5-22.7 8-2.6 3.5-8.5 4.5-11.3 1.7C79.3 9.8 91 5.8 91 5.8c-3.3.2-8.4 2.8-8.4 2.8C87 3.4 99.8 4.3 99.8 4.3c-17.3-3-28.1 8.2-29.6 13.7-2.1 7.1-7.8 10.6-7.8 10.6s6.1-2.6 7.9-7.1c1.7-4.5 6-7 6-7-2.5 1-4.8 8-6.2 10.9-1.4 2.8-5.4 5.8-8.4 6.7-3 .9-4.8-2.8-2.3-6.4 2.5-3.6 6.3-9.8 9.6-16.1C72.3 3.3 86.1 2 86.1 2 73.2.3 63.2 6.4 60.3 11.6c-2.9 5.2-10.5 7.3-10.5 7.3 4.1.2 10.4-3.5 11.7-5.5 1.4-2.1 3.8-4.3 3.8-4.3s-1 .7-1.3 2c-1.1 3.2-4.7 7.6-11.1 9.2-15 3.8-16.2 16.7-7.7 25 8.7 8 20.5 4.5 26-2.6z" class="st0"/><linearGradient id="b" x1="144.4045" x2="231.2027" y1="-51.8301" y2="-80.139" gradientTransform="translate(-108.888 93.684)" gradientUnits="userSpaceOnUse"><stop offset="0" style="stop-color:#fdd600"/><stop offset="0.5276" style="stop-color:#ef7600"/><stop offset="1" style="stop-color:#d92922"/></linearGradient><path fill="url(#b)" d="M77.3 36.5s-4.5-6.3-14.5.4c-8 5.4-17.9-8.4-6.8-15.2 0 0-5.2 1.4-9.5 4.5-5.1 3.7-6.7 13.7 2.4 18.8 0 0-4.6-6.1-2.7-9.1 0 0 3.9 14.6 13.9 11.5C70 44.2 64.2 35 77.3 36.5z" class="st1"/><linearGradient id="c" x1="103.1554" x2="160.9641" y1="-24.6863" y2="-45.1669" gradientTransform="rotate(-5.48 880.824 1023.54)" gradientUnits="userSpaceOnUse"><stop offset="0" style="stop-color:#fdd600"/><stop offset="0.5276" style="stop-color:#ef7600"/><stop offset="1" style="stop-color:#d92922"/></linearGradient><path fill="url(#c)" d="M10.4 33.2S-2.7 42.5.5 54.3C2 59.9 3.8 63.2 8.3 64c-3.6-2.6-7-8.5-2.7-15.7 8.2-12.7 19-7.2 19-7.2-5.8-1.6-12.7 1.7-16.1 8.5-1.9 3.8-1.9 6.8-.9 9 0-1.8.9-5.9 4.8-7 4.8-1.3 7.6 6 4.5 8.9-2.3 2.1-5.3 1.5-6.7 1 2.6 1.7 6 1.8 8.2.7 5.7-2.9 10.3-.6 12.5 2.1.4.7.9 1 1.3 1.1-.9-.3-2.8-.9-4.2-1.9-1.9-1.3-8.3-.8-11.5 2.4 0 0 6.9-3.1 11.3.4 4.5 3.6 14.9 3 23.7-8 0 0-10.8 8.4-16.1 3.9-5.2-4.4-10.6-8.3-13.9-10.4-3.3-2-3.3-6.9-.7-7.9 2.6-1 6.6-.7 8.8 1.2 1.9 1.7 5.7 6.2 8.1 6.8-1.4-.1-4.2-.7-6.4-3.1-3.1-3.4-8.7-2-8.7-2s5.6-.2 10 5.6c2.3 3.3 9.4 6.4 17.2 2.8l-.7-1.2c-1.2.3-2.4.3-3.5-.2 0 0 1.3-.2 3-.7l-.6-1.2c-2.4-.1-4.6-1.3-4.1-5.3.1-.5.2-1.1.4-1.5L40.5 38c-.4.3-.8.6-1.3 1-3.1 2.7-9.2 4.9-7.9-2.7.5-2.9 2.6-4.7 5.1-5.9l-4-7.4c-6.4 1.8-14 1.9-16.6-1.4 0 0 1.5 3.4 4.2 5.3C12.6 24 6.5 27 1.8 37.5c0 0 4.7-7 8.6-4.3z" class="st2"/><path fill="#281714" d="M142.9 31.6c-.3-1.2-1.6-2.7-2.2-3.3 0-.9-.2-3.3-2.1-5.2l-.1-.1c-1.1-1-3-1.3-3.9-1.5-.2-.7-.7-1.8-1.6-3-1.2-1.6-3.5-3.5-7.4-3.9-.4-1.3-1.4-4-2.9-5-1.1-.8-4.6-1.8-5.4-2l-3.2-2.1c-.5-.3-.9-.5-1.3-.5-.6 0-1.6.3-1.8 2.4-.1.8.1 2.7 1 4.4.7 1.3 2.2 3 4.9 3.6 0 .2.1.3.1.5-.5.3-1.2.7-1.9 1.3-1 1-2.3 2.6-2.5 5-.3-.5-.6-1.2-.6-2.1-.1-1.9-.9-3.2-2-3.2-.3 0-.6.1-1 .4-.6-.9-1.8-2.1-3.5-2.4-1.1-.2-2.1.3-2.3 1.3-.3 1.2.3 3.1 2.5 4.7 0 .4 0 .8.3 1.2.1.2.2.3.4.4 0 .2.1.5.1.8-.5.1-1.2.3-1.8.6-.9-.9-2.4-1.7-4-1.7-1.3 0-3.1.5-4.7 2.9-.2-.8-.7-1.6-1.8-1.6-.3 0-.7.1-1.1.3-.9.4-1.8 1.6-2 3.2-.1 1.4.3 3.5 3.2 5.4 2.3 1.6 6 3.5 14.2 3.5h.2c3.5 0 5.8-.5 6.8-1.4h1.5c.1.2.3.5.6.7 0 .3.2.5.3.7.4.5 1 .7 1.8.7.3 0 .6 0 .8-.1.2.1.5.1.8.1.9 0 1.9-.6 2.5-1.5.3.2.7.6.9.8l.1.1c.2.2 1 .7 3.2 1h.7c2.7 0 4.1-1.3 4.8-2.4.6-1 .8-2.1.7-2.8 0-.1.1-.1.1-.2.1-.2.1-.4.1-.8.4-.3.9-.6 1.2-.9.1 0 .2.1.3.1.4 1 1.6 3 4.4 3.6.4.1.7.1.9.1.6 0 1.1-.2 1.4-.6.5-.4.4-1.1.3-1.5z" class="st3"/><path fill="#EC2214" d="M141.9 37.7c-.2-.3-.5-.6-.8-.8-.2-.3-.5-.6-.8-.8-.6-.9-1.6-1.4-2.8-1.4h-10c-1 0-2 .4-2.8 1-.6-.6-1.5-1-2.5-1h-10.6c-1 0-2 .4-2.8 1-.6-.6-1.5-1-2.5-1H95.7c-.1-.7-.4-1.4-.8-2-.2-.3-.5-.5-.7-.7 0 0 0-.1-.1-.1-.2-.3-.5-.5-.7-.7 0 0 0-.1-.1-.1-.7-.9-1.7-1.4-2.8-1.4-3.2 0-5.7 3.8-6.9 6-.6-.7-1.5-1-2.5-1H70.5c-1 0-1.9.4-2.8 1-.6-.6-1.5-1-2.4-1H58c.4-.5.7-1 1-1.6.5-.9.9-1.9 1.1-2.7.4-.1.9-.3 1.2-.6 1.2-1.3 2.8-5.5 3.3-8.1.4-.2.7-.5.9-.7.4-.5.9-1.4.7-2.7-.1-1.1-.7-1.9-1.4-2.4-.2-.3-.4-.5-.7-.7-.2-.3-.5-.7-.9-1-.2-.3-.5-.5-.8-.8-.8-1-2.2-2-4.8-2.5-1-.2-2.1-.3-3.2-.3-2.2 0-4.3.4-5.9.6-.5.1-1 .2-1.4.2-.1-.1-.3-.3-.5-.4-.2-.3-.5-.6-.9-.9-.4-.2-.8-.3-1.2-.3-1.2 0-2.1.9-2.7 1.5l-.2.2h-1.7c-.3 0-.8 0-1.4.1-.2-.2-.3-.3-.6-.5-.2-.3-.5-.6-.8-.8-.5-.8-1.4-1.3-2.3-1.3-1.3 0-2.4.8-2.9 1.6l-1.1 1.6-.4.3c-.4.3-.6.6-.8 1.1l-.3.8c-.8.6-1.2 1.3-1.6 2h-.6c-.9 0-1.7.6-2 1.4l-.4 1c-.3.9 0 1.9.7 2.4l.2.2v.1l-1.9 5.3c-.2.4-.2.9-.1 1.3l-6.3 17.7-.3.3h-.6c-.9 0-1.7.5-2 1.4-.2.6-.9 2.5 0 4.2.1.2.2.3.3.5-.1.5.1 1 .4 1.5.2.3.4.5.7.6 0 .1.1.1.1.2s.1.1.2.2l-.1.5c-.2.6-.1 1.4.3 1.9.2.3.4.5.7.6 0 .1.1.1.1.2.2.3.4.5.7.6 0 .1.1.1.1.2.4.6 1 .9 1.7.9h114.3c.9 0 1.7-.6 2-1.4l.6-1.6c.2-.5.2-.9 0-1.4.6-.5 1.1-1.1 1.4-1.8l.2-.5c.1-.3.2-.7.1-1.1.3-.3.5-.7.6-1l3.6-9.8c.3-1.2.2-2.4-.5-3.3zM41 31h-.4c0-.3.1-.7.2-1.1l1-2.6c.1 0 .1-.1.2-.1.3-.3.7-.5 1-.7.2-.1.4-.1.5-.1.2 0 .4 0 .6.1.4.1.9.2 1.5.1.1 0 .2 0 .3-.1-1.6 2.8-3.2 4.2-4.9 4.5zm6.5-8c-.2-.4-.4-.8-.7-1.2l-.5-.5s0-.1-.1-.1c.4-.1.9-.2 1.5-.2h.2c-.1.6-.2 1.2-.4 2z" class="st4"/><path fill="#281714" d="M34.8 9.1c1 0 1.8.5 2.3 1.3.3.2.6.5.8.8.2.1.4.3.6.5.6 0 1.1-.1 1.4-.1H41.6l.2-.2c.6-.6 1.4-1.5 2.7-1.5.4 0 .8.1 1.2.3.4.2.7.6.9.9.2.1.4.3.5.4.4-.1.9-.1 1.4-.2 1.6-.3 3.7-.6 5.9-.6 1.2 0 2.2.1 3.2.3 2.6.5 4 1.5 4.8 2.5.3.3.6.5.8.8.4.3.7.7.9 1 .3.2.5.5.7.7.7.5 1.3 1.3 1.4 2.4.2 1.3-.3 2.2-.7 2.7-.2.2-.5.5-.9.7-.5 2.7-2.1 6.8-3.3 8.1-.3.3-.7.6-1.2.6-.3.8-.6 1.8-1.1 2.7-.3.6-.7 1.1-1 1.6h7.3c1 0 1.8.3 2.4 1 .8-.6 1.8-1 2.8-1h10.8c1 0 1.9.4 2.5 1 1.2-2.2 3.7-6 6.9-6 1.1 0 2.1.5 2.8 1.4 0 0 0 .1.1.1.3.2.5.4.7.7 0 0 0 .1.1.1.3.2.5.4.7.7.4.6.7 1.3.8 2H106.5c1 0 1.8.4 2.5 1 .8-.6 1.8-1 2.8-1h10.6c1 0 1.8.4 2.5 1 .8-.6 1.8-1 2.8-1h10c1.2 0 2.2.5 2.8 1.4.3.2.6.5.8.8.3.2.6.5.8.8.6.9.8 2.1.4 3.3l-3.6 9.8c-.1.4-.3.7-.6 1 .1.4 0 .7-.1 1.1l-.2.5c-.3.8-.7 1.4-1.4 1.8.1.4.1.9 0 1.4l-.6 1.6c-.3.8-1.1 1.4-2 1.4H19.6c-.7 0-1.3-.3-1.7-.9 0-.1-.1-.1-.1-.2-.3-.2-.5-.4-.7-.6 0-.1-.1-.1-.1-.2-.3-.2-.5-.4-.7-.6-.4-.6-.5-1.3-.3-1.9l.2-.6-.2-.2c0-.1-.1-.1-.1-.2-.3-.2-.5-.4-.7-.6-.3-.4-.4-1-.4-1.5-.1-.1-.2-.3-.3-.5-.8-1.7-.2-3.6 0-4.2.3-.8 1.1-1.4 2-1.4h.6l.3-.3 6.3-17.7c-.1-.4-.1-.9.1-1.3l1.9-5.3v-.1l-.2-.2c-.8-.6-1.1-1.5-.7-2.4l.4-1c.3-.8 1.1-1.4 2-1.4h.6c.3-.7.8-1.4 1.6-2l.3-.8c.1-.4.4-.8.8-1.1l.4-.3 1.1-1.6c.3-.6 1.5-1.5 2.8-1.5M47.5 23c.3-.8.4-1.4.4-1.9h-.2c-.5 0-1 .1-1.5.2 0 0 0 .1.1.1.3.2.5.4.5.5.3.3.5.7.7 1.1m-6.9 8h.4c1.7-.3 3.3-1.7 4.8-4.5-.1 0-.2.1-.3.1h-.4c-.4 0-.8-.1-1-.1-.2-.1-.4-.1-.6-.1-.1 0-.3 0-.5.1-.3.1-.7.4-1 .7-.1.1-.1.1-.2.1l-1 2.6c-.1.4-.2.8-.2 1.1M34.8 7.7c-1.8 0-3.4 1.1-4.1 2.2l-.9 1.4-.2.2c-.6.4-1.1 1-1.3 1.8l-.1.4c-.5.4-.8.9-1.2 1.4-1.4.1-2.6 1-3.1 2.3l-.4 1c-.4 1.2-.2 2.6.7 3.6l-1.6 4.4c-.2.5-.3 1.1-.2 1.7l-5.9 16.7c-1.4.1-2.6 1-3.1 2.3-.3.7-1.1 3.2 0 5.3 0 .1.1.1.1.2 0 .7.2 1.3.6 1.9.1.2.3.4.5.6-.3 1-.1 2.1.5 2.9.2.3.5.6.8.8.2.3.5.6.8.8.7.9 1.7 1.5 2.9 1.5h114.3c1.5 0 2.8-.9 3.3-2.3l.6-1.6c.2-.4.2-.9.2-1.3.5-.5.9-1.2 1.2-1.9l.2-.5c.1-.4.2-.8.2-1.1.2-.3.4-.6.5-1l3.6-9.8c.6-1.6.4-3.3-.5-4.6-.3-.4-.6-.7-.9-1-.2-.3-.5-.6-.8-.8-.9-1.2-2.3-1.8-3.8-1.8h-10c-.9 0-1.9.2-2.7.7-.8-.5-1.6-.7-2.6-.7h-10.6c-.9 0-1.8.2-2.7.7-.7-.4-1.6-.7-2.5-.7h-9.5c-.2-.5-.5-1-.8-1.5-.2-.3-.5-.6-.8-.9-.2-.3-.5-.6-.8-.8-.9-1.2-2.3-1.9-3.9-1.9-3.3 0-5.8 3-7.4 5.4-.6-.3-1.3-.4-2-.4H70.5c-.9 0-1.8.2-2.7.7-.7-.4-1.6-.7-2.5-.7h-4.8c.3-.5.5-1.1.7-1.8.4-.2.8-.5 1.1-.8 1.4-1.6 2.9-5.6 3.5-8.2.3-.2.5-.4.7-.7.6-.7 1.3-1.9 1-3.8-.2-1.3-.8-2.4-1.8-3.2-.2-.3-.4-.5-.7-.7-.3-.3-.6-.7-.9-1-.2-.3-.5-.5-.8-.8-1.2-1.4-3-2.4-5.5-2.9-1.1-.2-2.3-.3-3.5-.3-2.3 0-4.5.4-6.1.7-.2 0-.4.1-.7.1-.3-.4-.7-.7-1.2-1-.6-.3-1.2-.5-1.9-.5-1.7 0-2.8 1-3.5 1.8h-2.1l-.1-.1c-.2-.3-.5-.6-.8-.8-.6-1-1.8-1.6-3.1-1.6zM43 28.1c.1-.1.2-.1.3-.2-.1.1-.2.3-.3.4v-.2z" class="st3"/><path fill="#FFF" d="M139.7 36.5c-.5-.7-1.3-1.1-2.2-1.1h-10c-1.1 0-2.1.5-2.9 1.3 0-.1-.1-.1-.1-.2-.5-.7-1.3-1.1-2.2-1.1h-10.6c-1 0-2.1.5-2.9 1.3 0-.1-.1-.1-.1-.2-.5-.7-1.3-1.1-2.2-1.1H96.1c-.9 0-1.8.4-2.5 1 .2-1.5.3-3.6-.6-4.9-.5-.7-1.3-1.1-2.2-1.1-3.3 0-5.9 4.9-6.7 6.4-.1 0-.2.1-.3.1-.1-.1-.1-.3-.2-.4-.5-.7-1.3-1.1-2.2-1.1H70.5c-1 0-2.1.5-2.9 1.3 0-.1-.1-.1-.1-.2-.5-.7-1.3-1.1-2.2-1.1H54.5c-1.3 0-2.6.7-3.4 1.8-.1-.3-.2-.5-.3-.7-.1-.2-.3-.3-.4-.5 2.4-.7 4.9-2.1 6.4-4.8.6-1.1 1-2.2 1.2-3.1h.1c.4 0 .8-.2 1-.5 1.2-1.3 2.8-5.7 3.2-8.1.5-.2.8-.5 1-.7.3-.4.7-1.1.6-2.2-.1-1.1-.8-1.8-1.6-2.2-.4-1-1.6-2.3-4.8-3-.9-.2-2-.3-3.1-.3-2.1 0-4.2.3-5.8.6-.9.1-1.7.3-2.1.3h-.2v-.1c-.1-.3-.3-1-.9-1.3-.3-.1-.6-.2-.9-.2-.9 0-1.6.7-2.2 1.3-.1.1-.2.3-.4.4-.1.1-.1.1-.5.1h-1.6c-.4 0-1.3 0-2.4.1-.3-.5-.6-1.2-.9-1.6-.4-.6-1.1-1-1.8-1-1.1 0-2 .8-2.4 1.3l-1.1 1.7-.5.4c-.2.2-.4.4-.5.7l-.3.9v.1c-.9.7-1.4 1.5-1.7 2.3h-1c-.6 0-1.1.4-1.3.9l-.4 1c-.2.6 0 1.2.5 1.6l.7.5-2.1 5.8c-.1.4-.1.8 0 1.1l-6.4 18.1c-.2.1-.4.3-.6.6h-.9c-.6 0-1.1.4-1.3.9-.1.4-.8 2.2 0 3.7.1.2.2.4.4.6-.1.4-.1.9.2 1.3.3.4.7.6 1.1.6h.3l-.6 1.6c-.2.4-.1.9.2 1.3.3.4.7.6 1.1.6h114.3c.6 0 1.1-.4 1.3-.9l.6-1.6c.2-.4.1-.9-.2-1.3l-.1-.1c.8-.4 1.3-1 1.6-1.8l.2-.5c.1-.3.1-.7 0-1 .3-.3.6-.7.7-1.1l3.6-9.8c.3-1 .2-2-.4-2.7zm-97 10.3h-3.3l.4-1.1h3.3l-.4 1.1zm5-22.6c-2.1 4.7-4.2 7.1-6.6 7.5-.2 0-.4.1-.7.1-.6 0-1.4-.1-1.8-.8-.5-.7-.5-1.7-.1-2.9l1-2.9c.1-.1.2-.1.3-.2.4-.3.8-.6 1.2-.8.3-.1.5-.2.8-.2.3 0 .5.1.8.1.3.1.5.1.8.1h.3c.7-.1 1.2-.6 1.4-1.2.3-.8 0-1.7-.6-2.4-.4-.5-1.1-.8-2-.9.8-.5 1.9-1 3.4-1 1.1 0 1.8.3 2.2.9.7.9.5 2.6-.4 4.6zm1.4 21h-.2l.6-1.6.2-.6c.2.5.6.9 1.2 1.3.3.2.9.5 1.7 1h-3.5zm16 0c-.5 0-.9.2-1.1.6-.2-.2-.4-.4-.7-.6-.2-.1-.5-.3-1-.6 0 0-.1 0-.1-.1C61 43.8 59 42.6 58 42h1.2c0 .2.1.5.2.7.3.4.7.6 1.1.6h4.7c.2 0 .4 0 .6-.1.2.4.6.7 1 1 .3.2.9.5 1.7 1h-3.4zm14.8.6c-.2-.2-.4-.4-.7-.6-.2-.1-.5-.3-1-.6 0 0-.1 0-.1-.1-1.2-.7-3.2-1.9-4.2-2.5h1.2c0 .2.1.5.2.7.3.4.7.6 1.2.6h4.3l-.9 2.5zm21 .8c-.1.3-.5.6-.7.6h-1.7l1.5-4c.1-.3.5-.6.7-.6h1.7l-1.5 4zm13.3 6.3h-3.6l3.6-9.8c.1-.3.5-.6.7-.6h3.1l-3.8 10.4zm18-7.2h-2l.9-2.6c.1-.3.5-.6.7-.6h1.5l-1.1 3.2z" class="st5"/><path fill="#281714" d="m46.5 47.5 1.6-4.4 1.6-4.4c.4-1-.2-1.9-1.2-1.9H38.1c-1 0-2.2.8-2.5 1.9l-.1.2h10.1c.8 0 1.2.7.9 1.5l-.3.8h-9.8c-1 0-2.2.8-2.5 1.9l-2.7 7.5c-.4 1 .2 1.9 1.2 1.9H41c.5 0 1-.2 1.4-.5.2.3.6.5 1.1.5h2.1l1.5-4.1c-.4 0-.8-.3-.6-.9zm-2.8.7h-5.3c-.5 0-.8-.4-.6-1l.7-2c.2-.5.8-.9 1.3-.9h5.3l-1.4 3.9zM62.5 46.4c-.2-.1-.6-.4-1.1-.7 0 0-4.3-2.5-4.8-2.8-.4-.3-.8-.4-.6-.9v-.1l.2-.4v-.1c.2-.4.6-.7 1-.7h3c.4 0 .6.3.5.7l-.2.5h4.7l1.2-3.2c.4-1-.2-1.9-1.2-1.9H54.5c-1 0-2.2.8-2.5 1.9l-.6 1.7-.4.8c-.2.7-.3 1.2.6 1.8.9.6 6.4 3.8 6.7 3.9.3.1.6.5.4.8-.2.3-.6.6-.9.6h-3.2c-.4 0-.6-.3-.5-.7l.4-1h-5.4l-1.4 4c-.4 1 .2 1.9 1.2 1.9h10.8c1 0 2.2-.8 2.5-1.9l.6-1.5.3-.8c.2-.8.3-1.3-.6-1.9zM78.5 46.4c-.2-.1-.6-.4-1.1-.7 0 0-4.3-2.5-4.8-2.8-.4-.3-.8-.4-.6-.9v-.1l.2-.4v-.1c.1-.4.6-.7 1-.7h3c.4 0 .6.3.5.7l-.2.5h4.7l1.2-3.2c.4-1-.2-1.9-1.2-1.9H70.5c-1 0-2.2.8-2.5 1.9l-.6 1.7-.4.8c-.2.7-.3 1.2.6 1.8.9.6 6.4 3.8 6.7 3.9.3.1.6.5.4.8-.2.3-.6.6-.9.6h-3.2c-.4 0-.6-.3-.5-.7l.4-1h-5.4l-1.4 4c-.4 1 .2 1.9 1.2 1.9h10.8c1 0 2.2-.8 2.5-1.9l.6-1.5.3-.8c.2-.8.2-1.3-.6-1.9zM122.2 36.8h-10.6c-1 0-2.2.8-2.5 1.9l-4.3 11.9c-.4 1 .2 1.9 1.2 1.9h3.3l3.6-9.8c.3-.8 1.2-1.5 2-1.5h3.6c.8 0 1.2.7.9 1.5l-3.6 9.8h.7c1 0 2.2-.8 2.5-1.9l4.3-11.9c.5-1.1-.1-1.9-1.1-1.9zM106.4 36.8H96c-1 0-2.2.8-2.5 1.9l-4.3 11.9c-.4 1 .2 1.9 1.2 1.9H100.8c1 0 2.2-.8 2.5-1.9l4.3-11.9c.3-1.1-.2-1.9-1.2-1.9zm-2.5 5.8-1.6 4.4c-.3.8-1.2 1.5-2 1.5H98c-.8 0-1.2-.7-.9-1.5l1.6-4.4c.3-.8 1.2-1.5 2-1.5h2.2c.8 0 1.3.7 1 1.5zM128.2 50.6c-.9 0-1.1-.4-.8-1.1v-.1h6.4c.5 0 1.1-.4 1.3-1l3.6-9.8c.4-1-.2-1.9-1.2-1.9h-10c-1 0-2.2.8-2.5 1.9l-4.3 11.9c-.4 1 .2 1.9 1.2 1.9H132c1 0 2-.3 2.4-1.4l.2-.5h-6.4zm1.7-8c.3-.8 1.2-1.5 2-1.5h2c.8 0 1.2.7.9 1.5l-1.6 4.5h-5l1.7-4.5z" class="st3"/><path fill="#EC2214" d="M87 51.1h-7.1c-.2 0-.4.2-.5.4v.1l-.2.4-.2.4h7.9l.1-.4.1-.4v-.1c.2-.2.1-.4-.1-.4zM91.9 38.6v-.1c.1-.2 0-.4-.2-.4h-7.1c-.2 0-.4.2-.5.4v.1L79.9 50v.1c-.1.2 0 .4.2.4h7.1c.2 0 .4-.2.5-.4V50l4.2-11.4zM91.8 37.7h-6.7s2.8-5.8 5.5-5.8c2.8-.1 1.2 5.8 1.2 5.8z" class="st4"/><path fill="#281714" d="M40.5 21c-.2 0-.3 0-.4-.1-.1.2-.2.5-.3.7l-.8 2.3c.5-.4 1-.8 1.6-1 1.6-.7 2.5 0 3 0 .5-.1.4-.7 0-1.3-.5-.5-2.3-.6-3.1-.6zM17.3 51.4l1.2-3.2h-1.9s-1.1 2.8.7 3.2zM28.4 20.8l-1.7-1.2.4-1h2.1zM21.7 46.6l6.4-18.1v-.2H26l-6.7 18.8H21c.3 0 .6-.2.7-.5zM36.5 13.6c-.2-.4-.7-1.4-1.1-2-.5-.8-1.6 0-1.8.3-.3.4-1.3 1.9-1.3 1.9l-.7.5-.3.8c.5-.3 1.1-.5 1.9-.8 1.1-.3 2.3-.5 3.3-.7zM34.6 12c.3 0 .6.3.6.6s-.3.6-.6.6-.6-.3-.6-.6c-.1-.3.2-.6.6-.6zM23.7 54.3l1.7-4.7h-5.1L18 55.9h114.3l.6-1.6z" class="st3"/><path fill="#281714" d="M33.2 14.8c-3 1-3.5 2.1-4 3.5l-3.4 9.2c-.1.2 0 .4.2.4h2c.4 0 .6.3.5.7l-6.4 18.1c-.1.4-.6.7-1 .7h-2.3l-1.8 5h9l13.9-38.7c-1.5 0-4.1.3-6.7 1.1zM62.5 16.9c-.1-1.1-1.4-1.2-1.4-1.2s.1-1.9-4-2.7c-4.4-.9-9.3.8-10.9.7-1.6-.1-1.1-1.3-1.6-1.6-.5-.3-1.1.6-1.7 1.2-.6.6-1.3.5-2.5.5h-.2v.1L26.4 52.4H29l5.7-15.9c.3-.7.3-1.2 1.6-1.2h7.5c3 0 9.1.1 11.8-4.8 1.1-2 1.5-4.4 1.5-4.4l1.1.6c1.1-1.2 3-6.8 3-8.3.7 0 1.5-.3 1.3-1.5zM49 24.7c-1.8 4.2-4.1 7.8-7.7 8.3-3.6.5-5.3-2.2-4.1-5.5 0 0 1.6-4.3 2.2-6 .6-1.7 2.6-4.2 6.5-4.2 4 .1 5 3.2 3.1 7.4zm5.6-5.8c.6-.3 1.4-.1 1.8.4l-2.7 1.3c-.1-.7.2-1.4.9-1.7zm1.3 2.8c-.7.3-1.4.1-1.8-.4l2.7-1.3c.1.7-.3 1.4-.9 1.7zm5.2-3.9c.1-.3-.1-1.4-.1-1.4.1-.1.7 0 .8.6.3.8-.7.8-.7.8z" class="st3"/><linearGradient id="d" x1="111.5138" x2="111.5138" y1="-59.3274" y2="-56.548" gradientTransform="matrix(1 0 -.364 1 -42.266 93.684)" gradientUnits="userSpaceOnUse"><stop offset="0" style="stop-color:#fff"/><stop offset="1" style="stop-color:#fff;stop-opacity:0"/></linearGradient><path fill="url(#d)" d="M91 32.6s1.2 1.9.3 4.4h-2.7s1.3-.1 1.8-1.3c.5-1.3.5-2.9.5-2.9s-.1-.4.1-.2z" class="st6"/><linearGradient id="e" x1="129.7013" x2="129.7013" y1="-55.3067" y2="-45.9951" gradientTransform="matrix(1 0 -.364 1 -60.219 93.684)" gradientUnits="userSpaceOnUse"><stop offset="0" style="stop-color:#fff"/><stop offset="1" style="stop-color:#fff;stop-opacity:0"/></linearGradient><path fill="url(#e)" d="M87.8 38.9h2.4c.4 0 .7.2.5.8-.2.5-3.4 9.3-3.4 9.3s2-9 .5-10.1z" class="st7"/><path fill="#281714" d="M94.9 31.6c-4.4-3.1-2.6-6.5-1.3-7.1 1.6-.8 1.6 1 1.6 1s.5.6 1.2.7c2.8-5.2 7-2.8 8.2-1.1 1.3-1.1 3.1-1 3.1-1s-.4-1.4-.3-2.3c-.7 0-.8-.5-.5-1.2-3.3-2-3.4-5-1.4-4.7 2.2.4 3.3 2.8 3.3 2.8l.4.1c.8-1.6 1.9-.7 2 1.5.1 2.7 2.1 4 2.1 4s-.1-.8.4-.7c-.2-5.3 4.6-7 4.6-7s-.4-1.1-.5-1.8c-5.2-.7-5.9-5.6-5.8-7.2.1-1.5.7-1.9 1.6-1.2l3.3 2.2s4.1 1.2 5.3 1.9c1.6 1.1 2.7 5.1 2.7 5.1 7.7.5 9 6.9 9 6.9s2.7.2 4 1.3c2 2.1 1.8 4.9 1.8 4.9s1.9 1.9 2.2 3.2c.2.9 0 1.2-1.5 1-3.3-.7-3.9-3.5-3.9-3.5-.4.2-1.1-.3-1.1-.3s-1.4 1.4-2.2 1.5c.4.7 0 1.2-.1 1.3.3.6-.2 4.9-5.1 4.5-2.1-.3-2.7-.8-2.7-.8s-1.1-1.4-2.1-1.3c-.2 1.1-1.7 2.1-2.6 1.5 0 0-2.5.6-2.2-.9-.8-.2-.8-1.1-.8-1.1H115s-.4 1.4-6.3 1.4c-7.8-.2-11.4-2-13.8-3.6z" class="st3"/><path fill="#FBCD00" d="M113.2 25.6c0 .5.8 1.4.8 1.4l.4 1c-1.3 1.4 1.2 2 1.2 2s.3.9.9 1.3c-.1 1.8 1.1 1.7 1.1 1.7s-3.8.5-9.3-1.9c-4.6-2-5.1-3.3-4.8-4.1-.2.1 2.1-5 9.7-1.4z" class="st8"/><g fill="#D79208"><path d="M108.1 18.1c-.1-.1-.2-.3-.4-.5 0 .5 0 1.4-.6 2.4.3.1.5.2.7.3.4-.7.4-1.7.3-2.2zM105.8 16.3c-.4-.1-.8-.1-1.1.3-.2.3-.1.7.2 1.2.6-.4.8-1.3.9-1.5zM107.5 17.4c-.2-.2-.5-.5-.8-.7 0 .5-.1 1.9-.7 2.5.3.3.6.5.8.6h.1c.2-.3.7-1.5.6-2.4z" class="st9"/><path d="M106.4 16.6s-.1-.1-.3-.2c-.2.8-.8 1.4-1.1 1.6.2.4.5.7.8 1 .2-.2.7-1 .6-2.4z" class="st9"/></g><path fill="#FBCD00" d="M120.7 14.7c-.6.2-1.6.1-2.3 0 0 .7.5 1.5.5 1.5s.4-.6.5-.7c.1-.1.5-.1.6 0 .1.2.4.4.4.4s.3-.1.7-.1c-.2-.4-.4-.8-.4-1.1z" class="st8"/><path fill="#281714" d="M121.5 15.7c.5-.1 1.3-.2 1.9-.1 0 0-2.1.4-2.5.9 1 .8 5 5.8 5.9 8.1 2-1.1 3.4-3 3.4-3s-1.1 2.8-.9 4.2c1.7 0 4.5.4 4.5.4s.3-2.7-.8-5.2c-1.1-2.4-4.6-5.2-8.4-5.3-.2-1.2-1.5-3.8-2.4-4.7-.9-.8-4.5-2.2-5.3-2.2-.4.4-.6 1-.6 1s.1-.9.3-1.2c-.5-.4-2.4-1.8-2.9-2-.4-.2-.8-.7-1.1.2-.3.9.1 4 1.9 5.6 1.2 1.1 3.2 2.1 6.6 1.6 0 .2-.1 1 .4 1.7zM115.8 21.9c-.9.3-1.2 2.3-1.2 2.8-1.7-5.3 3.8-7.7 3.8-7.7s-1.3 4.4 1.2 7.3h-.9s-1.7-2.8-2.9-2.4z" class="st3"/><path fill="#FFF" d="M115.1 21.6s.6-1 1.4-.6c.3.2.3.4.3.4l.5-.1s-.3-.8-1-.9c-.7 0-1.2 1.2-1.2 1.2z" class="st5"/><path fill="#FBCD00" d="M119 24.5s3.8 5.1 3.9 7.3c1.5.8 2.8 2 2.6 3.1.7.8 4.8 2.2 6.9-1.1.5-.8.4-1.9.4-1.9s-.8.6-1.9-.1c-1.1-.7-1.1-2.1-.4-2.5-.8-.8-3.1-1.3-5-.7 0 0 1-.7 2.2-.6 0 0-.6-.9-2.1-.6 0 0 .8-.4 1.3-.3-.2-.3-.3-.6-1.1-.5-.8.1-3.3-.3-4.4-1.1-.8-.5-1.4-1.1-1.4-1.1l-1 .1z" class="st8"/><path fill="#FFF" d="M133.1 30.1c1.6-.4 2.9-2.7 2.9-2.7s-.6-1.1-7.8-1c-.3 0-1.1-.7-1.7-.7-.4-1.2-2.8-5.1-4.5-7.2-1.8-2.1-2.4-2.9-2.7-2.5-.2.3-1 2.6-.7 4.6.3 2 1.7 4.3 4.4 5.2 1.1.4 2.7.5 3.2.4.8.1 1.1.6 1.1.9.7.2.7.9.7.9s2.1 0 2.8 1c.2 0 1.6-.2 2.3 1.1z" class="st5"/><path fill="#281714" d="M119.6 16.2c.2.1.8.8 1.5 1.6.2.3.5.6.8.9 1.7 2 4.1 5.9 4.5 7.1l.1.2h.2c.3 0 .6.2 1 .4.3.2.5.3.7.3h.9c4.8 0 6.2.6 6.6.8-.3.5-1.3 1.9-2.4 2.3-.6-.9-1.6-1-2-1h-.1c-.7-.8-2.2-1-2.7-1-.1-.2-.3-.6-.7-.8-.1-.4-.6-.8-1.3-.9H126.1c-.6 0-1.7-.1-2.6-.4-2.7-.8-3.9-3.1-4.2-5-.7-2 .1-4.2.3-4.5m-.1-.2c-.1 0-.1 0-.2.1-.2.3-1 2.6-.7 4.6.3 2 1.7 4.3 4.4 5.2.9.3 2 .4 2.7.4h.5c.8.1 1.1.6 1.1.9.7.2.7.9.7.9s2.1 0 2.8 1h.3c.4 0 1.3.1 1.9 1 1.6-.4 2.9-2.7 2.9-2.7s-.5-1-6.9-1h-.9c-.3 0-1.1-.7-1.7-.7-.4-1.2-2.8-5.1-4.5-7.2-1.3-1.7-2-2.5-2.4-2.5z" class="st3"/><path fill="#FBCD00" d="M131.1 29.4c-.4 0-.8.5-.5 1.2.3.7 1.1 1.1 1.9 1 .7-.1.6-1.1.2-1.5-.3-.3-1.1-.7-1.6-.7z" class="st8"/><g fill="#281714"><path d="M115.4 26.2c.1-.5-.1-.8-.3-1-.1-.2-.3-.2-.4-.2-.1 0-.5-.1-.8-.1-.1 0-.3 0-.4.1-.1.1-.3.2-.3.5s.1.9.5 1.2c.2.2.5.2.8.2.4.1.8-.2.9-.7zM116.6 29c0-.3 0-.9-.4-1.3-.2-.2-.4-.3-.7-.3h-.1c-.3 0-1.2.5-1.4 1.2-.2.9.5 1.1.7 1.2.2.1.4.1.5.1.8 0 1.3-.3 1.4-.9zM118.9 31.5c-.2-.5-.6-1-1.3-1h-.2c-.4.1-1.1.5-1 1.8.1.5.5.8 1 .8h.4c.4-.1.8-.4 1-.8.1-.2.2-.5.1-.8z" class="st3"/></g><path fill="#FBCD00" d="M114.6 25.5s-.7-.1-.9-.1c-.1.1 0 .7.2.9.2.2.8.2.9-.2.1-.3-.1-.6-.2-.6zM115.4 27.9c-.1 0-.8.4-1 .9-.1.3 0 .5.3.6.4.1 1.2 0 1.2-.4.2-.5 0-1.1-.5-1.1zM117.4 31.1c-.2 0-.7.3-.5 1.2.1.4.4.4.8.3.4-.1.8-.6.7-.9-.1-.3-.4-.7-1-.6z" class="st8"/><path fill="#281714" d="M139.3 28.9c0-2-.8-4.1-1.9-4.9-1.1-.8-2.6-1.1-3.4-1.1 0 0 .2 1.4.1 2.5 1 .5 3.1.6 3.1.6-.3.5-.3 2.6-.3 2.6s.2 2.4 2.7 3.4c1.5.6 1.9.4 1.9.2.2-.1-1-2.7-2.2-3.3z" class="st3"/><path fill="#FBCD00" d="M136.9 26.5c-1.4-.1-2.4-.4-2.7-.6v.4c1.2.3 2.4.7 2.4.8 0 .1-.4 1-.8 1.4.3.3.6.3.9.3-.1-.5-.1-1.5.2-2.3zM95.3 28.9c-.9-.6-.5-1.3 0-1.5.5-.2.9-.7.9-.7s-1-.6-1.2-.8c-.2.4-.7.8-.7.8.2-.3.6-1.8.1-1.8s-1.1.6-1.5 1.6c-.4.9-.2 2.4 1.5 4 .1-.8.7-1.4.9-1.6z" class="st8"/><path fill="#FBCD00" d="M97.4 25.6c-.6.8-1.1 1.7-1.7 2.1-1.4.9 1.8 2 2.6 1.4.4-.3 1-.6 1.5-.8 0-.6-.5-2.2-2.4-2.7z" class="st8"/><path fill="#281714" d="M103.5 28.9c-1.9-1.8.8-3.7.8-3.7s-1.6-2.1-4.1-1.7c-1.1.2-1.9.9-2.5 1.6.6.2 2.5 1.1 2.5 3 .4-.1.8-.2 1.1-.3.1-.4.5-.9.5-.9-.3.7 0 1.7 0 1.7-1.1-.6-2.3.4-3.1.9-.7.5-1.7.3-3.1-.4-.6.4-.9 1.1-1 1.6 4.5 3.6 9.7 3.7 13.8 3.8 4.1.1 4.7-.1 6.1-.8-3.5-.5-9-2.8-11-4.8zM113.2 24.8s-1-.8-1.6-1.8c-.5.2-2 .6-3.5.6 0 .1.1.2.2.3 0 0 3.2.2 4.8 1.2-.1-.2.1-.3.1-.3z" class="st3"/><path fill="#FBCD00" d="M111.2 21.7c-.3-1.2-.5-2.7-.8-3.1-.4-.6-1-.1-.9.7-.2-.3-.5-.3-.5-.3l.3.5s.5.1.7.5c0 0-.8-.3-1 0-.2.3 0 1.2 0 1.2l-.4-.3s-1-.1-1.3-.4c-.3.5-.1.7.3.7l.4-.2s-.2.2-.1.6c0 .3 0 1.1.2 1.7.5 0 2.4-.2 3.4-.8 0-.1-.1-.2-.1-.4-.5.3-1.5.4-1.5.4.7-.1 1.1-.6 1.3-.8zM126.9 25.2s1.1.4 1.4.7h.5s0-1.6.6-2.9c-1 1.1-2.3 1.9-2.6 2l.1.2z" class="st8"/><path fill="#281714" d="M116.2 21.8c-1.7 0-1.8 3.5-1.8 3.6 0 4.1 3.9 7.1 4.1 7.2l.4.3.3-.3.2-.2c.4-.4.9-.6 1.4-.6.9 0 1.6.5 1.6.5l1.4 1-.6-1.6c0-.1-.9-2.4-2.3-4.7-2.8-4.5-4-5.2-4.7-5.2z" class="st3"/><path fill="#FFF" d="M116.2 22.3c1.1.1 2.9 2.7 4.2 5 1.4 2.3 2.2 4.6 2.2 4.6s-.8-.6-1.9-.6c-.6 0-1.2.2-1.8.7l-.2.2s-3.9-2.9-3.9-6.8c.1-.5.4-3.1 1.4-3.1" class="st5"/><path fill="#281714" d="m115.9 23.3.5.2s-.4 1.5-.2 2.3c1.6.3 1.8.3 1.8.3l-.1 1.3 1.2.5-1.6-.1v-1.2l-1.7-.3c0-.1-.4-1.1.1-3z" class="st3"/><path fill="#FBCD00" d="M125.3 34.8c-.2-.4-1.4-1.2-2-1.2 0-.3-.2-.6-.2-.6s.1.5-.4 1.2c-1 1.6-1.9 1-1.9 1-.7.2-1.9.2-1.8-.7-.6 0-1-.8-.2-1.7 0 0 2-2.1 4.2-.2 1.1.1 2.3 1.3 2.3 2.2z" class="st8"/><path fill="#FFF" d="M104.6 7s1.1 0 1.7 1c.6 1-.4 2.4-1.6 2.6-1.2.2-1.7.3-1.9.9-.1.6.1 1 .5 1.2.4.2.8.5.6 1 0 0-.1-.5-.9-.5-.8-.1-2.2-.9-1.8-2.4.4-1.5 1.8-2.1 2.9-2.1 1 0 1.3-.4 1.3-.8 0-.5-.3-.8-.8-.9z" class="st5"/><path fill="#281714" d="M105.7 8.9c0 .1 0 .1-.1.2-.2.4-.6.7-1 .8-1.2.2-2.3.3-2.5 1.5v.3c-.1-.2-.1-.4 0-.7.3-1.1 1.5-1.5 2.1-1.5.7-.2 1.2-.4 1.5-.6m-1-1.9c-.1 0-.1 0 0 0 .5.1.8.5.8.8 0 .3-.3.7-1.3.8-1 0-2.5.6-2.9 2.1-.4 1.5 1 2.3 1.8 2.4.8.1.9.5.9.5.2-.4-.3-.7-.6-1-.4-.2-.6-.7-.5-1.2.1-.6.7-.7 1.9-.9 1.2-.2 2.2-1.6 1.6-2.6-.6-.9-1.7-.9-1.7-.9z" class="st3"/><path fill="#FFF" d="M102.8 5s-1.2.1-1.2 1.1 1.7 1.6 2.5 1.6c0 0-2.2.8-3.7-.1-1.6-.9.4-3.2 2.4-2.6z" class="st5"/><path fill="#281714" d="M100.9 5.9V6c0 .5.2.9.5 1.2-.3 0-.6-.1-.8-.3-.2-.1-.2-.3-.2-.4.1-.1.3-.4.5-.6m1.2-1c-1.7 0-3.2 1.9-1.8 2.7.6.3 1.2.4 1.8.4 1.1 0 2-.3 2-.3-.7 0-2.5-.6-2.5-1.6s1.2-1.1 1.2-1.1c-.2-.1-.5-.1-.7-.1zM131.8 30.1s.7.3.8.7c.1.4-.5.6-.9.4 0 0 .5-.5.1-1.1zM119.9 17.7s-.8 2.7.2 4.3c0 0-.1-3.8 3.4.6 0 0-2.2-3.7-3.6-4.9zM124.4 24.1s.8 1 .9 1.2c0 0-1.6-.2-2.1-.5-.1 0 1.1.3 1.2-.7z" class="st3"/><path fill="none" d="M0 0h150v70H0z" class="st10"/></svg>